<svg
width="225"
height="94"
viewBox="0 0 225 94"
fill="none"
xmlns="http://www.w3.org/2000/svg"
>
{" "}
<rect
    y="14.5054"
    width="19.5824"
    height="65.6374"
    rx="9.79121"
    fill="#2174C9"
></rect>{" "}
<rect
    x="46.4176"
    y="14.4031"
    width="19.5824"
    height="65.8423"
    rx="9.79121"
    fill="#24CEC8"
></rect>{" "}
<rect
    x="23"
    width="19.5824"
    height="30.8636"
    rx="9.79121"
    fill="#C7D710"
></rect>{" "}
<rect
    x="23"
    y="62.446"
    width="19.5824"
    height="30.8636"
    rx="9.79121"
    fill="#C7D710"
></rect>{" "}
<circle
    cx="32.7912"
    cy="46.6547"
    r="9.79121"
    fill="#FA8937"
></circle>{" "}
<ellipse
    cx="56.7347"
    cy="34.9787"
    rx="3.85575"
    ry="4.11515"
    fill="white"
></ellipse>{" "}
<ellipse
    cx="59.4887"
    cy="44.7521"
    rx="2.20329"
    ry="2.57197"
    fill="white"
></ellipse>{" "}
<path
    d="M75.916 29.76H82.576L82.162 27.96H76.312L75.916 29.76ZM79.21 23.964L81.208 28.644L81.262 29.166L82.972 33H85.366L79.21 19.698L73.054 33H75.448L77.194 29.058L77.23 28.59L79.21 23.964ZM86.8317 20.4V33H88.9917V20.4H86.8317ZM90.8997 33C92.1837 33 93.3117 32.742 94.2837 32.226C95.2557 31.698 96.0117 30.966 96.5517 30.03C97.1037 29.082 97.3797 27.972 97.3797 26.7C97.3797 25.428 97.1037 24.324 96.5517 23.388C96.0117 22.44 95.2557 21.708 94.2837 21.192C93.3117 20.664 92.1837 20.4 90.8997 20.4H88.1457V22.398H90.8457C91.4697 22.398 92.0457 22.488 92.5737 22.668C93.1017 22.848 93.5577 23.118 93.9417 23.478C94.3377 23.838 94.6437 24.288 94.8597 24.828C95.0877 25.368 95.2017 25.992 95.2017 26.7C95.2017 27.408 95.0877 28.032 94.8597 28.572C94.6437 29.112 94.3377 29.562 93.9417 29.922C93.5577 30.282 93.1017 30.552 92.5737 30.732C92.0457 30.912 91.4697 31.002 90.8457 31.002H88.1457V33H90.8997ZM99.4528 20.4V33H101.613V20.4H99.4528ZM103.521 33C104.805 33 105.933 32.742 106.905 32.226C107.877 31.698 108.633 30.966 109.173 30.03C109.725 29.082 110.001 27.972 110.001 26.7C110.001 25.428 109.725 24.324 109.173 23.388C108.633 22.44 107.877 21.708 106.905 21.192C105.933 20.664 104.805 20.4 103.521 20.4H100.767V22.398H103.467C104.091 22.398 104.667 22.488 105.195 22.668C105.723 22.848 106.179 23.118 106.563 23.478C106.959 23.838 107.265 24.288 107.481 24.828C107.709 25.368 107.823 25.992 107.823 26.7C107.823 27.408 107.709 28.032 107.481 28.572C107.265 29.112 106.959 29.562 106.563 29.922C106.179 30.282 105.723 30.552 105.195 30.732C104.667 30.912 104.091 31.002 103.467 31.002H100.767V33H103.521ZM112.074 20.4V33H114.216V20.4H112.074ZM117.859 28.95L116.275 30.048C116.551 30.624 116.923 31.158 117.391 31.65C117.859 32.142 118.405 32.538 119.029 32.838C119.665 33.126 120.355 33.27 121.099 33.27C121.639 33.27 122.155 33.18 122.647 33C123.151 32.832 123.601 32.592 123.997 32.28C124.393 31.956 124.705 31.56 124.933 31.092C125.161 30.624 125.275 30.096 125.275 29.508C125.275 28.956 125.179 28.476 124.987 28.068C124.807 27.66 124.561 27.306 124.249 27.006C123.937 26.694 123.589 26.436 123.205 26.232C122.833 26.028 122.461 25.86 122.089 25.728C121.417 25.488 120.871 25.254 120.451 25.026C120.031 24.798 119.719 24.558 119.515 24.306C119.323 24.042 119.227 23.748 119.227 23.424C119.227 23.064 119.365 22.752 119.641 22.488C119.917 22.212 120.349 22.074 120.937 22.074C121.357 22.074 121.723 22.158 122.035 22.326C122.359 22.482 122.641 22.698 122.881 22.974C123.121 23.238 123.319 23.526 123.475 23.838L125.203 22.866C124.987 22.422 124.687 21.996 124.303 21.588C123.931 21.18 123.469 20.844 122.917 20.58C122.365 20.316 121.717 20.184 120.973 20.184C120.217 20.184 119.539 20.328 118.939 20.616C118.351 20.892 117.883 21.288 117.535 21.804C117.187 22.308 117.013 22.896 117.013 23.568C117.013 24.156 117.127 24.66 117.355 25.08C117.583 25.488 117.871 25.836 118.219 26.124C118.567 26.4 118.933 26.634 119.317 26.826C119.701 27.006 120.049 27.15 120.361 27.258C120.889 27.45 121.351 27.648 121.747 27.852C122.155 28.044 122.473 28.284 122.701 28.572C122.929 28.848 123.043 29.22 123.043 29.688C123.043 30.18 122.863 30.582 122.503 30.894C122.143 31.206 121.675 31.362 121.099 31.362C120.619 31.362 120.187 31.266 119.803 31.074C119.419 30.87 119.065 30.588 118.741 30.228C118.429 29.856 118.135 29.43 117.859 28.95Z"
    fill="#e5f5f5"
></path>{" "}
<path
    d="M75.232 47.95L73.648 49.048C73.924 49.624 74.296 50.158 74.764 50.65C75.232 51.142 75.778 51.538 76.402 51.838C77.038 52.126 77.728 52.27 78.472 52.27C79.012 52.27 79.528 52.18 80.02 52C80.524 51.832 80.974 51.592 81.37 51.28C81.766 50.956 82.078 50.56 82.306 50.092C82.534 49.624 82.648 49.096 82.648 48.508C82.648 47.956 82.552 47.476 82.36 47.068C82.18 46.66 81.934 46.306 81.622 46.006C81.31 45.694 80.962 45.436 80.578 45.232C80.206 45.028 79.834 44.86 79.462 44.728C78.79 44.488 78.244 44.254 77.824 44.026C77.404 43.798 77.092 43.558 76.888 43.306C76.696 43.042 76.6 42.748 76.6 42.424C76.6 42.064 76.738 41.752 77.014 41.488C77.29 41.212 77.722 41.074 78.31 41.074C78.73 41.074 79.096 41.158 79.408 41.326C79.732 41.482 80.014 41.698 80.254 41.974C80.494 42.238 80.692 42.526 80.848 42.838L82.576 41.866C82.36 41.422 82.06 40.996 81.676 40.588C81.304 40.18 80.842 39.844 80.29 39.58C79.738 39.316 79.09 39.184 78.346 39.184C77.59 39.184 76.912 39.328 76.312 39.616C75.724 39.892 75.256 40.288 74.908 40.804C74.56 41.308 74.386 41.896 74.386 42.568C74.386 43.156 74.5 43.66 74.728 44.08C74.956 44.488 75.244 44.836 75.592 45.124C75.94 45.4 76.306 45.634 76.69 45.826C77.074 46.006 77.422 46.15 77.734 46.258C78.262 46.45 78.724 46.648 79.12 46.852C79.528 47.044 79.846 47.284 80.074 47.572C80.302 47.848 80.416 48.22 80.416 48.688C80.416 49.18 80.236 49.582 79.876 49.894C79.516 50.206 79.048 50.362 78.472 50.362C77.992 50.362 77.56 50.266 77.176 50.074C76.792 49.87 76.438 49.588 76.114 49.228C75.802 48.856 75.508 48.43 75.232 47.95ZM86.3578 45.7C86.3578 44.836 86.5378 44.068 86.8978 43.396C87.2698 42.712 87.7798 42.178 88.4278 41.794C89.0758 41.41 89.8138 41.218 90.6418 41.218C91.4938 41.218 92.2378 41.41 92.8738 41.794C93.5218 42.178 94.0258 42.712 94.3858 43.396C94.7458 44.068 94.9258 44.836 94.9258 45.7C94.9258 46.564 94.7398 47.338 94.3678 48.022C94.0078 48.694 93.5038 49.222 92.8558 49.606C92.2198 49.99 91.4818 50.182 90.6418 50.182C89.8138 50.182 89.0758 49.99 88.4278 49.606C87.7798 49.222 87.2698 48.694 86.8978 48.022C86.5378 47.338 86.3578 46.564 86.3578 45.7ZM84.1078 45.7C84.1078 46.636 84.2698 47.506 84.5938 48.31C84.9178 49.114 85.3678 49.81 85.9438 50.398C86.5318 50.986 87.2278 51.448 88.0318 51.784C88.8358 52.108 89.7058 52.27 90.6418 52.27C91.5898 52.27 92.4598 52.108 93.2518 51.784C94.0558 51.448 94.7518 50.986 95.3398 50.398C95.9278 49.81 96.3838 49.114 96.7078 48.31C97.0318 47.506 97.1938 46.636 97.1938 45.7C97.1938 44.752 97.0318 43.882 96.7078 43.09C96.3838 42.298 95.9218 41.614 95.3218 41.038C94.7338 40.45 94.0438 39.994 93.2518 39.67C92.4598 39.346 91.5898 39.184 90.6418 39.184C89.7178 39.184 88.8538 39.346 88.0498 39.67C87.2578 39.994 86.5618 40.45 85.9618 41.038C85.3738 41.614 84.9178 42.298 84.5938 43.09C84.2698 43.882 84.1078 44.752 84.1078 45.7ZM100.573 41.308H106.207V39.4H100.573V41.308ZM100.573 46.312H106.027V44.458H100.573V46.312ZM99.2595 39.4V52H101.347V39.4H99.2595ZM106.841 41.362H110.153V52H112.295V41.362H115.625V39.4H106.841V41.362ZM129.111 47.842L125.493 38.77L121.911 47.842L118.923 39.4H116.457L121.604 52.666L125.493 43.756L129.381 52.666L134.529 39.4H132.063L129.111 47.842ZM135.787 48.76H142.447L142.033 46.96H136.183L135.787 48.76ZM139.081 42.964L141.079 47.644L141.133 48.166L142.843 52H145.237L139.081 38.698L132.925 52H135.319L137.065 48.058L137.101 47.59L139.081 42.964ZM149.295 45.988L153.309 52H155.865L151.599 45.988H149.295ZM146.703 39.4V52H148.827V39.4H146.703ZM147.963 41.236H150.501C150.981 41.236 151.401 41.32 151.761 41.488C152.133 41.656 152.421 41.896 152.625 42.208C152.829 42.52 152.931 42.904 152.931 43.36C152.931 43.804 152.829 44.188 152.625 44.512C152.421 44.824 152.133 45.064 151.761 45.232C151.401 45.4 150.981 45.484 150.501 45.484H147.963V47.23H150.591C151.503 47.23 152.295 47.068 152.967 46.744C153.651 46.42 154.179 45.964 154.551 45.376C154.923 44.788 155.109 44.098 155.109 43.306C155.109 42.514 154.923 41.83 154.551 41.254C154.179 40.666 153.651 40.21 152.967 39.886C152.295 39.562 151.503 39.4 150.591 39.4H147.963V41.236ZM158.722 52H165.076V50.128H158.722V52ZM158.722 41.272H165.076V39.4H158.722V41.272ZM158.722 46.168H164.716V44.332H158.722V46.168ZM157.408 39.4V52H159.496V39.4H157.408Z"
    fill="#e5f5f5"
></path>{" "}
<path
    opacity="0.8"
    d="M78.8295 69.4545C78.7784 69.0227 78.571 68.6875 78.2074 68.4489C77.8438 68.2102 77.3977 68.0909 76.8693 68.0909C76.483 68.0909 76.1449 68.1534 75.8551 68.2784C75.5682 68.4034 75.3438 68.5753 75.1818 68.794C75.0227 69.0128 74.9432 69.2614 74.9432 69.5398C74.9432 69.7727 74.9986 69.973 75.1094 70.1406C75.223 70.3054 75.3679 70.4432 75.544 70.554C75.7202 70.6619 75.9048 70.7514 76.098 70.8224C76.2912 70.8906 76.4688 70.946 76.6307 70.9886L77.517 71.2273C77.7443 71.2869 77.9972 71.3693 78.2756 71.4744C78.5568 71.5795 78.8253 71.723 79.081 71.9048C79.3395 72.0838 79.5526 72.3139 79.7202 72.5952C79.8878 72.8764 79.9716 73.2216 79.9716 73.6307C79.9716 74.1023 79.848 74.5284 79.6009 74.9091C79.3565 75.2898 78.9986 75.5923 78.527 75.8168C78.0582 76.0412 77.4886 76.1534 76.8182 76.1534C76.1932 76.1534 75.652 76.0526 75.1946 75.8509C74.7401 75.6491 74.3821 75.3679 74.1207 75.0071C73.8622 74.6463 73.7159 74.2273 73.6818 73.75H74.7727C74.8011 74.0795 74.9119 74.3523 75.1051 74.5682C75.3011 74.7812 75.5483 74.9403 75.8466 75.0455C76.1477 75.1477 76.4716 75.1989 76.8182 75.1989C77.2216 75.1989 77.5838 75.1335 77.9048 75.0028C78.2259 74.8693 78.4801 74.6847 78.6676 74.4489C78.8551 74.2102 78.9489 73.9318 78.9489 73.6136C78.9489 73.3239 78.8679 73.0881 78.706 72.9062C78.544 72.7244 78.331 72.5767 78.0668 72.4631C77.8026 72.3494 77.517 72.25 77.2102 72.1648L76.1364 71.858C75.4545 71.6619 74.9148 71.3821 74.517 71.0185C74.1193 70.6548 73.9205 70.179 73.9205 69.5909C73.9205 69.1023 74.0526 68.6761 74.3168 68.3125C74.5838 67.946 74.9418 67.6619 75.3906 67.4602C75.8423 67.2557 76.3466 67.1534 76.9034 67.1534C77.4659 67.1534 77.9659 67.2543 78.4034 67.456C78.8409 67.6548 79.1875 67.9276 79.4432 68.2741C79.7017 68.6207 79.8381 69.0142 79.8523 69.4545H78.8295ZM81.7092 76V67.2727H86.9762V68.2102H82.766V71.1591H86.7035V72.0966H82.766V75.0625H87.0444V76H81.7092ZM88.4038 68.2102V67.2727H94.9492V68.2102H92.2049V76H91.1481V68.2102H88.4038ZM96.103 68.2102V67.2727H102.648V68.2102H99.9041V76H98.8473V68.2102H96.103ZM105.336 67.2727V76H104.279V67.2727H105.336ZM114.376 67.2727V76H113.353L108.597 69.1477H108.512V76H107.455V67.2727H108.478L113.251 74.142H113.336V67.2727H114.376ZM122.456 70C122.363 69.7131 122.239 69.456 122.086 69.2287C121.935 68.9986 121.755 68.8026 121.544 68.6406C121.337 68.4787 121.101 68.3551 120.837 68.2699C120.573 68.1847 120.283 68.142 119.968 68.142C119.451 68.142 118.98 68.2756 118.557 68.5426C118.134 68.8097 117.797 69.2031 117.547 69.723C117.297 70.2429 117.172 70.8807 117.172 71.6364C117.172 72.392 117.299 73.0298 117.551 73.5497C117.804 74.0696 118.147 74.4631 118.578 74.7301C119.01 74.9972 119.496 75.1307 120.036 75.1307C120.536 75.1307 120.976 75.0241 121.357 74.8111C121.74 74.5952 122.039 74.2912 122.252 73.8991C122.468 73.5043 122.576 73.0398 122.576 72.5057L122.9 72.5739H120.275V71.6364H123.598V72.5739C123.598 73.2926 123.445 73.9176 123.138 74.4489C122.834 74.9801 122.414 75.392 121.877 75.6847C121.343 75.9744 120.729 76.1193 120.036 76.1193C119.263 76.1193 118.584 75.9375 117.999 75.5739C117.417 75.2102 116.962 74.6932 116.635 74.0227C116.311 73.3523 116.15 72.5568 116.15 71.6364C116.15 70.946 116.242 70.3253 116.426 69.7741C116.614 69.2202 116.878 68.7486 117.219 68.3594C117.56 67.9702 117.963 67.6719 118.429 67.4645C118.895 67.2571 119.408 67.1534 119.968 67.1534C120.428 67.1534 120.857 67.223 121.255 67.3622C121.655 67.4986 122.012 67.6932 122.324 67.946C122.64 68.196 122.902 68.4957 123.113 68.8452C123.323 69.1918 123.468 69.5767 123.547 70H122.456ZM128.306 68.2102V67.2727H134.852V68.2102H132.107V76H131.05V68.2102H128.306ZM136.483 76V67.2727H137.539V71.1591H142.193V67.2727H143.25V76H142.193V72.0966H137.539V76H136.483ZM145.365 76V67.2727H150.632V68.2102H146.422V71.1591H150.36V72.0966H146.422V75.0625H150.701V76H145.365ZM160.685 69.4545C160.634 69.0227 160.426 68.6875 160.063 68.4489C159.699 68.2102 159.253 68.0909 158.725 68.0909C158.338 68.0909 158 68.1534 157.711 68.2784C157.424 68.4034 157.199 68.5753 157.037 68.794C156.878 69.0128 156.799 69.2614 156.799 69.5398C156.799 69.7727 156.854 69.973 156.965 70.1406C157.078 70.3054 157.223 70.4432 157.4 70.554C157.576 70.6619 157.76 70.7514 157.953 70.8224C158.147 70.8906 158.324 70.946 158.486 70.9886L159.373 71.2273C159.6 71.2869 159.853 71.3693 160.131 71.4744C160.412 71.5795 160.681 71.723 160.936 71.9048C161.195 72.0838 161.408 72.3139 161.576 72.5952C161.743 72.8764 161.827 73.2216 161.827 73.6307C161.827 74.1023 161.703 74.5284 161.456 74.9091C161.212 75.2898 160.854 75.5923 160.382 75.8168C159.914 76.0412 159.344 76.1534 158.674 76.1534C158.049 76.1534 157.507 76.0526 157.05 75.8509C156.596 75.6491 156.238 75.3679 155.976 75.0071C155.718 74.6463 155.571 74.2273 155.537 73.75H156.628C156.657 74.0795 156.767 74.3523 156.961 74.5682C157.157 74.7812 157.404 74.9403 157.702 75.0455C158.003 75.1477 158.327 75.1989 158.674 75.1989C159.077 75.1989 159.439 75.1335 159.76 75.0028C160.081 74.8693 160.336 74.6847 160.523 74.4489C160.711 74.2102 160.804 73.9318 160.804 73.6136C160.804 73.3239 160.723 73.0881 160.561 72.9062C160.4 72.7244 160.186 72.5767 159.922 72.4631C159.658 72.3494 159.373 72.25 159.066 72.1648L157.992 71.858C157.31 71.6619 156.77 71.3821 156.373 71.0185C155.975 70.6548 155.776 70.179 155.776 69.5909C155.776 69.1023 155.908 68.6761 156.172 68.3125C156.439 67.946 156.797 67.6619 157.246 67.4602C157.698 67.2557 158.202 67.1534 158.759 67.1534C159.321 67.1534 159.821 67.2543 160.259 67.456C160.696 67.6548 161.043 67.9276 161.299 68.2741C161.557 68.6207 161.694 69.0142 161.708 69.4545H160.685ZM163.087 68.2102V67.2727H169.633V68.2102H166.888V76H165.832V68.2102H163.087ZM170.602 76H169.494L172.699 67.2727H173.79L176.994 76H175.886L173.278 68.6534H173.21L170.602 76ZM171.011 72.5909H175.477V73.5284H171.011V72.5909ZM185.274 67.2727V76H184.251L179.496 69.1477H179.411V76H178.354V67.2727H179.376L184.149 74.142H184.234V67.2727H185.274ZM190.082 76H187.389V67.2727H190.201C191.048 67.2727 191.772 67.4474 192.375 67.7969C192.977 68.1435 193.439 68.642 193.76 69.2926C194.081 69.9403 194.241 70.7159 194.241 71.6193C194.241 72.5284 194.079 73.3111 193.755 73.9673C193.431 74.6207 192.96 75.1236 192.341 75.4759C191.721 75.8253 190.968 76 190.082 76ZM188.446 75.0625H190.014C190.735 75.0625 191.333 74.9233 191.808 74.6449C192.282 74.3665 192.636 73.9702 192.869 73.456C193.102 72.9418 193.218 72.3295 193.218 71.6193C193.218 70.9148 193.103 70.3082 192.873 69.7997C192.643 69.2884 192.299 68.8963 191.842 68.6236C191.385 68.348 190.815 68.2102 190.133 68.2102H188.446V75.0625ZM195.962 76H194.854L198.058 67.2727H199.149L202.354 76H201.246L198.638 68.6534H198.57L195.962 76ZM196.371 72.5909H200.837V73.5284H196.371V72.5909ZM203.713 76V67.2727H206.662C207.344 67.2727 207.903 67.3892 208.341 67.6222C208.778 67.8523 209.102 68.169 209.312 68.5724C209.523 68.9759 209.628 69.4347 209.628 69.9489C209.628 70.4631 209.523 70.919 209.312 71.3168C209.102 71.7145 208.78 72.027 208.345 72.2543C207.911 72.4787 207.355 72.5909 206.679 72.5909H204.293V71.6364H206.645C207.111 71.6364 207.486 71.5682 207.77 71.4318C208.057 71.2955 208.264 71.1023 208.392 70.8523C208.523 70.5994 208.588 70.2983 208.588 69.9489C208.588 69.5994 208.523 69.294 208.392 69.0327C208.261 68.7713 208.053 68.5696 207.766 68.4276C207.479 68.2827 207.099 68.2102 206.628 68.2102H204.77V76H203.713ZM207.821 72.0795L209.969 76H208.741L206.628 72.0795H207.821ZM214.082 76H211.389V67.2727H214.201C215.048 67.2727 215.772 67.4474 216.375 67.7969C216.977 68.1435 217.439 68.642 217.76 69.2926C218.081 69.9403 218.241 70.7159 218.241 71.6193C218.241 72.5284 218.079 73.3111 217.755 73.9673C217.431 74.6207 216.96 75.1236 216.341 75.4759C215.721 75.8253 214.968 76 214.082 76ZM212.446 75.0625H214.014C214.735 75.0625 215.333 74.9233 215.808 74.6449C216.282 74.3665 216.636 73.9702 216.869 73.456C217.102 72.9418 217.218 72.3295 217.218 71.6193C217.218 70.9148 217.103 70.3082 216.873 69.7997C216.643 69.2884 216.299 68.8963 215.842 68.6236C215.385 68.348 214.815 68.2102 214.133 68.2102H212.446V75.0625Z"
    fill="#e5f5f5"
></path>{" "}
</svg>