<svg
xmlns="http://www.w3.org/2000/svg"
width="542.009"
height="111.082"
viewBox="0 0 542.009 111.082"
fill="currentColor"
>
<g
    id="_2Fwhite"
    data-name="2Fwhite"
    transform="translate(-268.991 -90.458)"
>
    <g id="Group_51777" data-name="Group 51777">
    <path
        id="Path_269491"
        data-name="Path 269491"
        d="M273.05,164.4l9.15-5.07-1.69-2.92s-.77-1.59,1.23-2.61l23.95-13.58,5.84,8.68a2.43,2.43,0,0,1-.3,3.42,2.85,2.85,0,0,1-.55.35l-23.51,13.21s-8.15,4-5.3,11.91L295,201.54,338.81,177l-6.3-11L298,186.17l-4.33-7.69s-1.54-1.77,1-3.23l23.13-12.91s8.45-4.07,4.3-15.21l-9.53-15.37s-5.68-5.61-12-2.23-28.05,15.76-28.05,15.76-5.69,5.61-2.62,12.45Z"
        fill="#fff"
    />
    <g id="Group_51774" data-name="Group 51774">
        <rect
        id="Rectangle_12465"
        data-name="Rectangle 12465"
        width="59.17"
        height="15.37"
        transform="translate(316.151 120.043) rotate(-30)"
        fill="#fff"
        />
        <rect
        id="Rectangle_12466"
        data-name="Rectangle 12466"
        width="40.71"
        height="13.56"
        transform="translate(330.381 140.67) rotate(-30)"
        fill="#fff"
        />
        <rect
        id="Rectangle_12467"
        data-name="Rectangle 12467"
        width="22.12"
        height="10.83"
        transform="translate(341.813 160.734) rotate(-30)"
        fill="#fff"
        />
    </g>
    </g>
    <rect
    id="Rectangle_12468"
    data-name="Rectangle 12468"
    width="3.25"
    height="84.74"
    transform="translate(401.86 99.5)"
    fill="#fff"
    />
    <path
    id="Path_267901"
    data-name="Path 267901"
    d="M464.59,108.81q-14.22,0-22.41,9.11t-8.17,25q0,16.2,7.71,25.15t22,9a59.39,59.39,0,0,0,17.49-2.44v4.66q-7.5,2.64-18.74,2.64-15.93,0-25.1-10.3t-9.16-28.78a45.23,45.23,0,0,1,4.37-20.34,31.68,31.68,0,0,1,12.58-13.58,37.17,37.17,0,0,1,19.07-4.79,45.8,45.8,0,0,1,19.83,4.14L482,113A38.44,38.44,0,0,0,464.59,108.81Z"
    fill="#fff"
    />
    <path
    id="Path_267902"
    data-name="Path 267902"
    d="M534.57,154.1H503.83l-10.56,26.71h-5.85l30.43-76h3.37l29.81,76h-5.95Zm-28.83-4.76h27.07l-10.3-27.28c-.86-2.14-1.9-5.11-3.1-8.9a83.487,83.487,0,0,1-3.06,9Z"
    fill="#fff"
    />
    <path
    id="Path_267903"
    data-name="Path 267903"
    d="M607.29,126.87q0,11-7.45,16.83t-21.12,5.84H567v31.27h-5.28V105.14h18.53Q607.3,105.14,607.29,126.87ZM567,145h10.41q12.78,0,18.47-4.22t5.7-13.69q0-8.74-5.39-13t-16.66-4.22H567Z"
    fill="#fff"
    />
    <path
    id="Path_267904"
    data-name="Path 267904"
    d="M623.75,180.81V105.14H629v75.67Z"
    fill="#fff"
    />
    <path
    id="Path_267905"
    data-name="Path 267905"
    d="M670.18,180.81h-5.33v-70.7H640.26v-5h54.5v5H670.18Z"
    fill="#fff"
    />
    <path
    id="Path_267906"
    data-name="Path 267906"
    d="M769.6,180.81V105.14h5.28v70.7H811v5Z"
    fill="#fff"
    />
    <path
    id="Path_267907"
    data-name="Path 267907"
    d="M729.08,104.83h-3.37l-30.43,75.98h5.85l26.14-67.65,25.67,67.65h5.95Z"
    fill="#ffa800"
    />
</g>
</svg>