<svg
xmlns="http://www.w3.org/2000/svg"
width="100%"
x="0"
y="0"
version="1.1"
viewBox="0 0 1681 1681"
xmlSpace="preserve"
>
    <path
        fill="#FFF"
        d="M926 1682H1V1H1682V1682L926 1682m140.885-1260.922l16.506 25.071c6.612-9.732 12.526-18.437 18.907-27.653 4.18-7.497 8.36-14.994 12.963-23.065 3.656-9.353 7.313-18.705 11.524-28.556 2.787-13.268 5.574-26.535 8.729-40.544-.299-14.784-.597-29.567-.792-44.892-.186-.505-.372-1.01-.478-2.17-.105-.425-.21-.85-.257-2.104-2.997-18.691-8.279-36.675-16.8-54.37-8.455-16.993-17.48-33.638-29.639-48.893-12.164 16.09-23.975 31.84-32.348 50.57-8.549 18.021-15.396 36.584-18.211 57.319-.53 3.938-1.473 7.873-1.516 11.816-.135 12.527.064 25.057.242 38.448 2.14 10.981 4.28 21.962 6.317 33.7 3.935 10.102 7.87 20.203 11.91 31.023 4.268 7.877 8.536 15.755 12.943 24.3m-82.365 22.28l32.217 20.203c.247-13.873.467-26.217.939-39.462-.602-8.365-1.203-16.73-1.672-25.922-.007-1.396-.013-2.792.288-4.524-.06-.565-.12-1.13-.082-2.599-.57-5.354-1.14-10.709-1.614-16.85-1.829-9.473-3.657-18.944-5.427-29.22-2.084-7.662-4.168-15.324-6.265-23.74-4.281-10.748-8.563-21.496-13.04-32.93-6.478-11.44-12.956-22.882-19.67-35.01-7.604-9.81-15.208-19.62-23.118-30.047-2.013-1.945-4.032-3.885-6.039-5.836-8.366-8.133-16.73-16.269-25.439-24.975-22.176-18.259-45.663-34.564-71.6-48.485 0 25.441-.087 50.19.087 74.937.028 4.047 1.208 8.086 1.752 12.795.088.438.176.876.154 2.066.295 1.432.59 2.864.82 5.154 2.317 11.064 4.633 22.127 6.956 33.85.14.416.281.83.403 1.929.518 1.479 1.036 2.958 1.583 5.091.147.41.293.82.459 1.972 1.577 4.421 3.154 8.842 4.76 14.022 2.28 5.29 4.56 10.581 6.749 16.576 6.035 11.354 12.07 22.707 18.256 34.714 6.612 9.128 13.224 18.256 20.056 27.98 5.818 6.373 11.636 12.746 17.819 19.717 6.69 6.136 13.382 12.273 20.362 19.013 6.23 4.811 12.46 9.623 19.008 15.025 6.944 4.686 13.889 9.372 21.298 14.556m246.394 59.897c7.366-.504 14.73-1.009 22.89-1.44 8.396-2.481 16.791-4.964 25.936-7.6 8.798-5.384 17.596-10.767 27.013-16.387 7.794-8.84 15.589-17.681 23.937-26.956 7.616-11.793 14.084-24.154 18.972-37.666-1.58-.461-2.801-.997-4.071-1.16-8.337-1.07-16.666-2.244-25.032-3.015-6.836-.63-13.719-.747-21.488-1.228-9.392 1.656-18.783 3.312-28.855 4.993-9.164 4.357-18.328 8.713-28.137 13.222-6.878 5.937-13.756 11.874-21.153 18.157-3.99 5.244-7.98 10.488-12.52 16.129l-20.144 37.382c14.839 3.295 28.079 5.813 42.652 5.57m-40.259-65.387c7.491-5.492 14.983-10.984 23.094-16.773 7.13-7.862 14.26-15.724 21.98-23.979 6.104-10.366 12.207-20.733 18.804-31.59 3.484-10.846 6.968-21.692 10.774-33.073.134-.812.268-1.625.654-3.154.043-.755.085-1.51.435-2.828.653-6.328 1.904-12.661 1.833-18.98-.147-13.172-.993-26.336-1.586-40.314-21.088 6.491-39.844 14.066-56.836 26.85-9.366 8.949-18.731 17.897-28.654 27.193-6.419 9.926-12.837 19.852-19.772 30.232-3.746 9.516-7.493 19.032-11.586 29.23-1.64 9.423-3.282 18.846-5.375 28.977-1.121 15.588-.388 31.052 2.572 46.889 15.38-4.908 29.88-10.077 43.663-18.68m-242.858 30.508c-8.12-10.531-16.239-21.062-24.71-32.183-9.994-11.133-19.988-22.266-30.262-33.995-10.13-9.462-20.26-18.923-30.794-28.974-1.22-.807-2.5-1.536-3.65-2.434-11.84-9.242-23.612-18.575-35.529-27.718-2.28-1.749-5.113-2.777-8.013-4.768-3.997-2.702-7.779-5.817-12.03-8.033-15.848-8.263-31.85-16.23-48.19-24.725-.538-.161-1.075-.322-2.125-.886-.812-.266-1.624-.532-2.929-1.29-16.387-5.76-32.636-11.962-49.21-17.12-10.515-3.272-21.515-4.991-32.535-7.984-5.71-1.312-11.38-2.849-17.137-3.9-35.77-6.532-71.825-9.92-108.21-9.468-.371.004-.738.409-1.666.956 8.01 12.275 15.629 24.56 23.852 36.423 17.176 24.78 35.968 48.269 57.683 70.177 8.662 8.297 17 16.969 26.068 24.793 10.805 9.322 22.238 17.916 33.773 27.397 20.111 14.666 41.178 27.736 64.423 38.604 2.755 1.082 5.513 2.156 8.263 3.248a15334.233 15334.233 0 0146.811 18.65c13.426 3.657 26.85 7.312 40.892 11.406 13.791 2.525 27.583 5.05 42.056 7.968 14.455 1.505 28.91 3.01 44.12 4.81l45.963 2.011.822-1.69c-9.176-13.542-18.35-27.084-27.736-41.275m-77.044 136.468l84.365-32.802-.378-1.714c-3.568-1.593-7.083-3.323-10.714-4.758-23.624-9.337-47.275-18.61-71.32-28.318-.562-.101-1.124-.202-2.09-.694-.534-.133-1.069-.266-2.248-.769-17.79-5.54-35.58-11.08-54.076-16.924-18.735-4.346-37.47-8.691-56.845-13.464-20.453-2.857-40.906-5.713-62.091-8.932-8.745-.683-17.478-1.704-26.236-1.977-16.364-.511-32.742-.588-49.918-1.072-19.041 1.296-38.082 2.591-57.87 3.77-.493.092-.986.184-2.204.189-.707.164-1.414.33-2.989.423-3.718.412-7.47.628-11.148 1.27-21.349 3.722-42.68 7.544-64.766 11.327-3.35.777-6.699 1.562-10.052 2.327-47.648 10.869-93.992 25.833-139.153 44.47-10.054 4.148-19.965 8.642-30.722 13.316 2.213 1.108 3.487 1.852 4.838 2.407 18.466 7.586 36.779 15.583 55.451 22.623 40.207 15.157 81.265 27.544 124.157 36.477 11.6 2.252 23.148 4.835 34.813 6.67 13.426 2.11 26.956 3.557 41.279 5.547 19.672 1.167 39.344 2.333 59.91 3.667 16.57-.36 33.148-.498 49.704-1.173 8.906-.363 17.774-1.648 27.554-2.44 4.303-.439 8.638-.675 12.903-1.353 15.742-2.501 31.462-5.149 48.007-7.724 18.695-4.428 37.39-8.855 56.867-13.248 18.076-5.696 36.152-11.391 54.972-17.121m380.305 140.787c-1.784.415-3.55 1.045-5.355 1.196-2.888.242-3.364 1.816-3.359 4.368.094 45.329-.014 90.658.246 135.986.055 9.718 1.385 19.428 2.132 29.2-8.065 3.586-16.924 5.1-30.59 5.113-20.332.018-40.664.004-60.995.004h-5.034c1.786-9.627 1.058-18.69-3.082-26.505-9.712-18.33-19.137-37.035-31.034-53.929-13.62-19.34-36.83-21.326-55.192-6.23-6.83 5.614-12.849 12.703-17.715 20.12-9.85 15.012-18.903 30.57-27.828 46.163-7.76 13.56-18.995 20.464-34.629 20.394-17.498-.079-34.998.084-52.493-.162-1.74-.024-4.397-1.804-4.978-3.379-1.236-3.348-1.843-7.09-1.906-10.684-.355-20.134-4.124-39.369-14.365-56.97-5.399-9.28-12.235-17.313-20.597-23.501l-23.33 23.083c.427.383.88.86 1.401 1.246 13.763 10.195 21.541 23.792 23.066 40.865.866 9.691 1.526 19.4 2.31 29.492-11.171 0-23.306.113-35.433-.164-1.304-.03-3.428-2.173-3.677-3.597-.91-5.215-1.415-10.53-1.663-15.826-1.115-23.823-12.175-41.995-29.87-54.947l-23.6 21.81c.233.516.259.716.371.8 1.331.99 2.687 1.949 4.015 2.943 9.332 6.988 15.615 15.905 16.941 27.72.774 6.89 1.113 13.83 1.686 21.26-11.087 0-22.544.084-33.995-.135-1.096-.021-2.863-1.795-3.103-2.997-.842-4.217-1.537-8.534-1.601-12.823-.375-25.148-11.089-44.75-29.918-58.426l-23.923 22.225c1.875 1.488 3.595 2.798 5.255 4.18 9.648 8.029 15.63 18 16.479 30.775.371 5.587 1.01 11.156 1.54 16.853h-86.841c-2.983-26.08-12.739-48.2-33.02-63.813l-24.828 23.647c21.294 23.184 27.905 50.448 20.233 80.264-8.379 32.562-34.67 44.134-64.533 50.166l3.003 22.008c37.696-.849 92.955-19.047 99.133-78.251h5.33c106.657 0 213.314.008 319.972-.03 3.983-.002 8.013-.152 11.942-.75 11.761-1.79 21.546-7.234 28.825-16.996 8.866 9.256 19.58 14.012 31.456 16.087 6.2 1.084 12.575 1.6 18.874 1.618 44.829.133 89.66.217 134.487-.031 11.294-.063 22.696-.63 33.84-2.333 11.891-1.817 23.535-5.252 35.792-8.097-5.322-15.553-3.974-30.284-3.998-44.887-.084-51.495-.032-102.99-.032-154.487v-5.661c-8.854 2.039-16.942 3.902-25.812 6.025M431.662 862.169c-8.868 12.701-13.889 26.782-15.294 42.202-2.28 25.016 10.669 44.07 33.924 49.207 5.312 1.173 10.893 1.433 16.36 1.529 12.411.216 24.829.068 38.765.068-2.724 4.034-4.184 7.948-7 10.011-6.5 4.765-13.258 9.595-20.632 12.672-17.896 7.47-37.044 9.22-56.234 10.062-14.524.637-29 .297-43.087-3.896-21.559-6.417-37.993-18.507-43.95-41.354-3.776-14.477-1.954-28.874 3.159-42.7 3.607-9.756 8.259-19.126 12.583-28.983l-26.595-13.378c-12.035 20.898-19.403 42.664-21.263 66.069-3.72 46.824 17.705 82.776 66.79 94.505 22.332 5.336 44.912 5.21 67.56 3.307 19.167-1.61 37.917-5.197 55.527-13.356 22.34-10.35 38.518-26.38 43.94-50.97 2.194-9.95 2.7-20.476 2.501-30.711-.605-31.239-14.275-56.389-38.048-76.077-12.324-10.206-26.487-14.556-42.414-9.507-11.296 3.58-19.329 11.44-26.592 21.3m-3.12 318.33c-.14-24.66-.424-49.323-.287-73.983.025-4.395-4.044-9.63.242-12.97 3.62-2.82 8.85-3.579 13.38-5.218.618-.224 1.302-.265 1.956-.39 22.222-4.271 33.984 5.387 34.002 27.967.02 27 .005 53.998.005 80.998v5.482h34.08c0-34.05.66-67.725-.25-101.357-.536-19.807-11.433-33.763-30.396-40.398-5.731-2.006-11.966-3.028-18.048-3.491-17.78-1.354-33.692 4.691-48.945 13.58-8.04-7.595-17.852-11.267-28.632-12.861-17.19-2.543-33.881.272-50.36 4.762-9.205 2.508-18.236 5.652-26.025 8.095 3.158 44.71.428 88.172 1.736 131.656h33.495V1092c6.47-1.558 13.29-3.948 20.292-4.743 18.852-2.14 29.298 7.68 29.308 26.79.013 27.666.003 55.332.002 82.998v5.519h34.444V1180.5m814.842-107.623c-25.098 20.454-33.544 57.753-20.161 89.597 6.048 14.39 15.63 25.872 29.17 33.808 19.473 11.41 39.975 12.132 61.545 4.843v65.78l34.79-4.348v-195.635c-.007-.003-.858-.57-1.787-.762-14.634-3.024-29.158-7.096-43.949-8.724-21.233-2.337-41.478 1.699-59.608 15.441M816.871 1048.5v154.033h34.245v-5.541-84.963c0-17.12.462-17.769 16.916-22.99 2.216-.702 4.473-1.4 6.765-1.716 9.17-1.26 18.064-.876 25.334 5.89 6.198 5.77 7.734 13.365 7.74 21.417.023 27.488.01 54.976.01 82.465v5.408h34.25c0-3.569.002-6.867 0-10.165-.028-29.653.325-59.313-.199-88.958-.449-25.43-15.26-41.787-40.21-45.657-16.165-2.508-31.448.66-46.02 7.8-1.37.672-2.76 1.304-4.721 2.227v-80.782l-34.11 8.057v53.475m267.132 28.013c-4.07 6.815-9.15 13.232-12.017 20.52-7.66 19.472-8.354 39.702-2.72 59.803 6.546 23.359 21.552 39.018 45.028 45.935 13.495 3.976 27.262 3.958 41.066 1.636 11.39-1.916 22.22-5.364 32.482-11.584l-11.574-26.009c-4.732 2.097-8.702 4.281-12.936 5.657-14.517 4.716-29.105 5.966-43.14-1.5-10.539-5.608-16.195-14.642-17.305-27.045h91.872c3.859-18.616 2.707-36.386-5.214-53.483-19.844-42.835-82.19-41.674-105.542-13.93m-499.321 11.41c10.55-2.032 21.123-3.345 31.526.566 4.869 1.83 9.044 4.73 9.236 10.594.193 5.926-3.765 9.155-8.721 10.864-5.952 2.052-12.077 3.693-18.226 5.068-13.623 3.049-27.515 5.14-40.077 11.751-17.926 9.435-25.467 27.376-19.64 46.815 4.836 16.136 17.286 23.843 32.275 28.298 18.777 5.581 37.888 5.035 56.9 1.537 11.52-2.12 22.857-5.229 33.059-7.61-.403-14.02-.943-26.618-1.082-39.22-.181-16.49.094-32.985-.076-49.476-.272-26.245-14.428-44.12-39.881-48.502-10.16-1.75-20.91-1.283-31.267-.384-13.28 1.152-25.945 5.383-38.482 11.075l11.448 25.405c7.873-2.36 15.021-4.504 23.008-6.78m183.11-28.166c-4.587-.801-9.145-1.911-13.766-2.347-17.167-1.62-33.688.134-47.984 10.956-21.542 16.308-20.718 48.515 1.758 63.451 5.066 3.367 10.943 5.541 16.52 8.105 6.933 3.187 14.158 5.808 20.849 9.429 5.275 2.854 8.222 7.85 7.487 14.16-.76 6.522-4.902 11.008-10.925 12.249-6.882 1.418-14.241 2.363-21.125 1.462-8.063-1.055-15.836-4.321-24.064-6.724l-9.738 26.058c24.57 8.8 49.067 13.41 74.396 4.925 10.572-3.542 19.294-9.777 24.727-19.835 10.191-18.862 5.126-41.673-13.032-53.267-9.28-5.927-20.068-9.475-30.115-14.226-4.186-1.98-8.651-3.738-12.23-6.562-7.996-6.31-5.988-17.21 3.622-20.464 3.08-1.043 6.615-1.72 9.79-1.33 10.3 1.267 20.532 3.105 31.411 4.822 2.737-7.528 5.89-16.196 9.27-25.495-5.68-1.838-10.861-3.514-16.851-5.367M1313.863 881.5v73.296h34.054V739.649c-11.53 2.695-22.755 5.32-34.054 7.96V881.5m-339.109 236v84.874h33.567v-112.033c14.513-4.156 29.547-4.938 44.853-.957l10.276-29.335c-32.558-7.745-62.22.26-90.146 12.035.508 15.545.979 29.981 1.45 45.416m-582.601 282.323l16.408-56.693h-11.398l-11.658 44.862-13.318-44.882h-13.08l-12.405 42.932-.952.064-11.658-42.805h-12.659c5.625 18.275 10.828 36.145 16.837 53.74.99 2.896 5.264 5.1 8.483 6.678 3.054 1.498 5.255.171 6.329-3.707 3.325-12.018 7.124-23.905 10.765-35.835.337-1.105.852-2.155 1.65-4.14 3.7 12.391 7.02 23.716 10.478 35 1.776 5.798 5.341 8.364 11.234 9.036 2.909.331 4.452-.53 4.944-4.25m69.72-630.172l-17.475-17.499-22.622 24.077 22.68 22.657 24.115-22.538 21.05 23.487 22.105-23.322-23.205-25.292-22.291 22.996a697.382 697.382 0 00-4.358-4.566m359.994-6.294l-11.212 11.232-22.206-22.31-22.594 23.88 22.823 22.62 23.388-22.152 21.143 23.697 22.52-23.728-22.41-24.854c-3.962 4.015-7.46 7.56-11.452 11.615m-252.65 599.304l-5.798 12.094c-4.782-9.967-9.096-19.13-13.61-28.193-.71-1.423-2.244-3.3-3.531-3.412-4.722-.41-9.502-.162-14.365-.162v60.066h10.797v-46.476c5.12 8.323 9.27 16.917 13.543 25.45 1.107 2.21 2.309 4.501 3.978 6.274 3.033 3.22 5.715 2.689 7.639-1.175 3.556-7.142 7.058-14.311 10.606-21.458 1.566-3.155 3.189-6.283 4.786-9.423l.875.311v46.546h10.531v-60.12c-4.515 0-8.685-.254-12.796.128-1.587.148-3.696 1.384-4.435 2.74-2.862 5.25-5.268 10.75-8.22 16.81m618.25 31.742v8.27c9.814 1.876 18.917 2.528 27.944.075 9.93-2.7 15.314-10.839 12.319-20.005-1.405-4.299-5.332-7.774-8.259-11.822 5.534-3.392 8.153-9.428 6.055-17.036-2.258-8.189-8.996-10.923-16.424-11.554-5.745-.487-11.601.46-17.411.564-3.552.063-4.324 1.765-4.292 5.035.15 15.165.067 30.331.068 46.473m-251.526-27.927c-.187 1.487-.444 2.968-.551 4.461-.983 13.73 5.444 26.11 15.995 30.863 14.58 6.57 31.463.812 37.968-12.948 7.655-16.192 2.128-37.021-11.698-43.927a27.674 27.674 0 00-5.11-1.952c-17.926-4.845-32.23 4.055-36.604 23.503m-293.078-22.6l-24.915 59.88c5.896-1.595 12.127 2.49 14.643-6.129 2.884-9.878 3.589-9.673 14.03-9.673 12.509 0 12.47.017 17.362 11.736.57 1.367 1.739 3.339 2.829 3.478 3.493.448 7.08.167 11.055.167-7.09-17.798-13.858-34.77-20.608-51.75-3.695-9.295-3.681-9.3-14.396-7.71m90.703 58.371l14.37 1.546.416-1.328c-8.94-10.197-17.878-20.395-27.027-30.832l26.07-28.429c-8.475-.606-15.618-1.395-20.836 6.596-3.694 5.656-9.041 10.233-14.614 16.349v-22.895h-10.756v59.857h10.943v-24.33l1.057-.505c6.62 7.807 13.24 15.613 20.377 23.971m38.855-41.744v42.493h36.108v-9.34h-24.459v-17.305h19.493v-9.335h-19.46v-14.746h23.529v-8.996h-35.21l-.001 17.229m-329.415 5.808v-13.888h23.522v-9.175h-34.615v59.71h35.562v-9.176H443.24v-17.38h19.31v-9.428c-6.545 0-12.692 0-19.545-.663m457.94 11.34c8.655-4.955 12.36-12.337 10.541-21.004-1.764-8.405-8.535-13.99-18.502-14.49-5.438-.272-10.922.502-16.39.647-3.186.085-4.156 1.455-4.13 4.635.142 17.618.061 35.236.086 52.855 0 .936.262 1.872.397 2.779h11.11v-22.177c5.84-1.065 11.01-2.007 16.887-3.245m185.61 25.324c5.451.316 10.958 1.273 16.342.806 9.53-.826 16.258-7.043 17.575-15.07 1.341-8.173-2.651-15.024-11.554-19.515-3.558-1.794-7.3-3.223-10.874-4.99-2.916-1.44-5.726-3.283-4.952-7.165.787-3.947 3.974-5.357 7.493-5.222 4.737.18 9.45.984 14.492 1.556l3.17-8.249c-8.851-3.263-17.384-4.607-26.134-1.582-8.87 3.066-13.023 10.932-10.698 19.775 1.529 5.81 5.68 9.218 10.76 11.747 4.015 2 8.157 3.758 12.093 5.9 2.99 1.628 5.292 4.498 3.708 7.764-1.112 2.292-3.911 4.16-6.382 5.273-1.956.88-4.597.63-6.864.342-3.753-.478-7.45-1.392-11.652-2.217l-2.523 9c2.052.675 3.613 1.189 6 1.847m-66.9-53.65c-5.474 9.493-3.268 18.908 6.08 24.42 4.567 2.693 9.565 4.644 14.266 7.123 3.028 1.597 5.382 4.407 3.91 7.69-1.039 2.317-3.808 4.32-6.27 5.397-2.11.924-4.921.643-7.354.344-3.73-.458-7.402-1.388-11.406-2.179l-2.427 8.942c8.177 3.145 16.16 4.166 24.302 2.442 9.109-1.927 14.627-7.581 15.612-15.324 1.019-8.004-2.695-14.369-11.195-18.768-3.39-1.755-7.008-3.065-10.437-4.751-3.174-1.56-6.612-3.268-5.723-7.688.913-4.537 4.77-5.407 8.514-5.24 4.402.198 8.77 1.15 13.394 1.81l3.033-8.115c-12.466-5.854-25.68-4.488-34.299 3.897m294.152.239v53.38h35.858v-9.166h-24.438v-17.34h19.594v-9.317h-19.58v-14.745h23.4v-9.087h-34.835v6.275m-486.35-618.492l-16.888-16.99-22.31 23.649 21.682 21.686 24.571-22.035a609.59 609.59 0 01-7.054-6.31m437.887 628.432v-16.223h-10.984v59.812h35.561v-9.345h-24.577v-34.244m-118.27 30.987v12.437h10.816v-59.666h-10.816v47.229z"
        opacity="1"
    ></path>
    <path
        fill="#1B429A"
        d="M1251.45 745.502a5746.694 5746.694 0 0125.42-5.895v5.661c0 51.496-.052 102.992.032 154.487.024 14.603-1.324 29.334 3.998 44.887-12.257 2.845-23.9 6.28-35.792 8.097-11.144 1.702-22.546 2.27-33.84 2.333-44.828.248-89.658.164-134.487.031-6.299-.019-12.674-.534-18.874-1.618-11.876-2.075-22.59-6.831-31.456-16.087-7.279 9.762-17.064 15.206-28.825 16.996-3.93.598-7.959.748-11.942.75-106.658.038-213.315.03-319.973.03h-5.329c-6.178 59.204-61.437 77.402-99.133 78.25l-3.003-22.007c29.862-6.032 56.154-17.604 64.533-50.166 7.672-29.816 1.061-57.08-20.233-80.264l24.829-23.647c20.28 15.613 30.036 37.732 33.019 63.813h86.84c-.528-5.697-1.168-11.266-1.539-16.853-.848-12.774-6.83-22.746-16.479-30.775-1.66-1.382-3.38-2.692-5.255-4.18l23.923-22.225c18.83 13.676 29.543 33.278 29.918 58.426.064 4.29.759 8.606 1.6 12.823.24 1.202 2.008 2.976 3.104 2.997 11.451.22 22.908.135 33.995.135-.573-7.43-.912-14.37-1.686-21.26-1.326-11.815-7.609-20.732-16.941-27.72-1.328-.994-2.684-1.953-4.015-2.944-.112-.083-.138-.283-.371-.8l23.6-21.809c17.695 12.952 28.755 31.124 29.87 54.947.248 5.297.753 10.611 1.663 15.826.249 1.424 2.373 3.567 3.677 3.597 12.127.277 24.262.164 35.432.164-.783-10.091-1.443-19.8-2.309-29.492-1.525-17.073-9.303-30.67-23.066-40.865-.52-.386-.974-.863-1.401-1.246l23.33-23.083c8.362 6.188 15.198 14.222 20.597 23.5 10.241 17.602 14.01 36.837 14.365 56.97.063 3.595.67 7.337 1.906 10.685.581 1.575 3.238 3.355 4.978 3.38 17.495.245 34.995.082 52.493.16 15.634.071 26.869-6.833 34.63-20.393 8.924-15.594 17.977-31.15 27.827-46.164 4.866-7.416 10.884-14.505 17.715-20.12 18.362-15.095 41.572-13.108 55.192 6.231 11.897 16.894 21.322 35.599 31.034 53.93 4.14 7.813 4.868 16.877 3.082 26.504h5.034c20.331 0 40.663.014 60.995-.004 13.666-.013 22.525-1.527 30.59-5.112-.747-9.773-2.077-19.483-2.132-29.201-.26-45.328-.152-90.657-.246-135.986-.005-2.552.471-4.126 3.36-4.368 1.805-.151 3.57-.781 5.745-1.326M1056.036 913.54c6.217 2.241 12.277 5.473 18.688 6.484 8.818 1.39 17.902 1.467 26.87 1.432 9.888-.04 15.346-7.732 11.02-16.686-5.912-12.239-12.658-24.18-20.168-35.507-5.606-8.455-15.913-8.782-23.533-1.996-2.46 2.19-4.763 4.75-6.482 7.545-5.921 9.623-11.552 19.424-17.63 29.726 3.732 3.009 7.185 5.793 11.235 9.002z"
        opacity="1"
    ></path>
    <path
        fill="#1C439A"
        d="M431.862 861.873c7.063-9.564 15.096-17.423 26.392-21.004 15.927-5.05 30.09-.699 42.414 9.507 23.773 19.688 37.443 44.838 38.048 76.077.199 10.235-.307 20.761-2.501 30.711-5.422 24.59-21.6 40.62-43.94 50.97-17.61 8.159-36.36 11.746-55.527 13.356-22.648 1.903-45.228 2.029-67.56-3.307-49.085-11.729-70.51-47.68-66.79-94.505 1.86-23.405 9.228-45.17 21.263-66.069l26.595 13.378c-4.324 9.857-8.976 19.227-12.583 28.983-5.113 13.826-6.935 28.223-3.16 42.7 5.958 22.847 22.392 34.937 43.951 41.354 14.087 4.193 28.563 4.533 43.087 3.896 19.19-.841 38.338-2.593 56.234-10.062 7.374-3.077 14.131-7.907 20.633-12.672 2.815-2.063 4.275-5.977 6.999-10.011-13.936 0-26.354.148-38.765-.068-5.467-.096-11.048-.356-16.36-1.53-23.255-5.136-36.205-24.19-33.924-49.206 1.405-15.42 6.426-29.5 15.494-42.498m49.758 19.961c-1.95-1.264-3.807-2.71-5.866-3.761-10.3-5.255-22.446-1.717-28.662 8.249-6.06 9.714-4.023 22.344 5.673 28.752 4.658 3.079 10.559 5.2 16.108 5.801 9.223 1 18.615.427 27.937.507 2.39.02 4.78.003 7.703.003-4.386-15.532-10.401-29.002-22.893-39.55z"
        opacity="1"
    ></path>
    <path
        fill="#1B429A"
        d="M428.541 1181v21.564h-34.444v-5.52c0-27.665.01-55.331-.002-82.997-.01-19.11-10.456-28.93-29.308-26.79-7.001.795-13.822 3.185-20.292 4.743v110.371H311c-1.308-43.484 1.422-86.945-1.736-131.656 7.789-2.443 16.82-5.587 26.025-8.095 16.479-4.49 33.17-7.305 50.36-4.762 10.78 1.594 20.593 5.266 28.632 12.861 15.253-8.889 31.165-14.934 48.945-13.58 6.082.463 12.317 1.485 18.048 3.49 18.963 6.636 29.86 20.592 30.396 40.4.91 33.631.25 67.305.25 101.356h-34.08v-5.482c0-27 .016-53.999-.005-80.998-.018-22.58-11.78-32.238-34.002-27.968-.654.126-1.338.167-1.957.39-4.529 1.64-9.76 2.398-13.379 5.219-4.286 3.34-.217 8.575-.242 12.97-.137 24.66.146 49.322.286 74.484zM1243.662 1072.655c17.85-13.52 38.096-17.556 59.33-15.219 14.79 1.628 29.314 5.7 43.948 8.724.929.191 1.78.759 1.787.762v195.635l-34.79 4.349v-65.781c-21.57 7.29-42.072 6.568-61.544-4.843-13.542-7.936-23.123-19.419-29.171-33.808-13.383-31.844-4.937-69.143 20.44-89.819m16.07 80.022c9.46 20.318 30.028 28.727 50.81 20.586 1.41-.553 3.176-2.605 3.186-3.971.189-26.281.14-52.563.14-80.259-7.005-.687-14.868-2.088-22.732-2.095-15.626-.015-27.01 8.287-32.185 23.035-4.906 13.986-4.964 28.073.78 42.704zM816.87 1048v-52.975l34.11-8.057v80.782c1.962-.923 3.352-1.555 4.722-2.226 14.572-7.141 29.855-10.31 46.02-7.801 24.95 3.87 39.761 20.227 40.21 45.657.524 29.645.171 59.305.198 88.958.003 3.298 0 6.596 0 10.165h-34.25v-5.408c0-27.489.014-54.977-.008-82.465-.007-8.052-1.543-15.647-7.74-21.416-7.27-6.767-16.165-7.152-25.335-5.89-2.292.314-4.55 1.013-6.765 1.715-16.454 5.221-16.916 5.87-16.916 22.99V1202.533H816.87V1048zM1084.237 1076.248c23.118-27.48 85.464-28.64 105.308 14.195 7.92 17.097 9.073 34.867 5.214 53.483h-91.872c1.11 12.403 6.766 21.437 17.306 27.045 14.034 7.466 28.622 6.216 43.14 1.5 4.233-1.376 8.203-3.56 12.935-5.657l11.574 26.01c-10.262 6.22-21.091 9.667-32.482 11.583-13.804 2.322-27.57 2.34-41.066-1.636-23.476-6.917-38.482-22.576-45.029-45.935-5.633-20.101-4.939-40.331 2.721-59.803 2.867-7.288 7.947-13.705 12.25-20.785m69.7 18.364c-8.969-9.364-22.597-12.094-34.361-6.883-10.533 4.664-17.366 16.753-16.297 29.062h57.95c.116-8.158-2.037-15.296-7.293-22.18z"
        opacity="1"
    ></path>
    <path
        fill="#1C439A"
        d="M584.263 1087.99c-7.568 2.21-14.716 4.353-22.59 6.714l-11.447-25.405c12.537-5.692 25.201-9.923 38.482-11.075 10.356-.899 21.106-1.365 31.267.384 25.453 4.381 39.609 22.257 39.88 48.502.171 16.49-.104 32.986.077 49.476.139 12.602.68 25.2 1.082 39.22-10.202 2.381-21.54 5.49-33.06 7.61-19.011 3.498-38.122 4.044-56.9-1.537-14.988-4.455-27.438-12.162-32.275-28.298-5.826-19.439 1.715-37.38 19.641-46.815 12.562-6.61 26.454-8.702 40.077-11.75 6.15-1.376 12.274-3.017 18.226-5.07 4.956-1.708 8.914-4.937 8.72-10.863-.19-5.864-4.366-8.763-9.235-10.594-10.403-3.911-20.976-2.598-31.945-.499m6.686 88.808c12.087 2.217 23.732.293 34.61-3.138v-39.33c-9.157 2.684-17.79 5.028-26.296 7.768-6.125 1.974-12.464 3.794-18.016 6.913-6.916 3.885-8.298 11.787-4.404 18.716 2.925 5.204 7.88 7.393 14.106 9.071z"
        opacity="1"
    ></path>
    <path
        fill="#F05533"
        d="M483.986 631.742c-42.134-8.655-83.192-21.042-123.399-36.2-18.672-7.039-36.985-15.036-55.45-22.622-1.352-.555-2.626-1.299-4.839-2.407 10.757-4.674 20.668-9.168 30.722-13.317 45.161-18.636 91.505-33.6 139.153-44.469 3.353-.765 6.701-1.55 10.37-1.983-.626 2.637-2.105 4.86-2.417 7.237-.947 7.203-2.027 14.467-2.008 21.705.063 24.433.216 48.879 1.162 73.288.252 6.485-.9 14.474 6.706 18.768z"
        opacity="1"
    ></path>
    <path
        fill="#F58230"
        d="M697.108 644.214c-8.884.87-17.752 2.154-26.658 2.517-16.556.675-33.135.812-50.1.626-2.712-15.213-5.905-29.806-7.112-44.562-1.35-16.525-1.28-33.203-1.093-49.805.108-9.546 1.372-19.117 2.664-28.602 1.4-10.292 3.437-20.497 5.197-30.74 16.372.257 32.75.334 49.114.845 8.758.273 17.491 1.294 26.363 2.462-2.169 1.13-4.7 1.166-5.205 4.512-2.681 17.77-6.353 35.439-7.99 53.298-1.157 12.627-.288 25.563.884 38.249 1.273 13.767 3.838 27.422 6.065 41.09.753 4.619 1.678 9.53 7.871 10.11z"
        opacity="1"
    ></path>
    <path
        fill="#F57F30"
        d="M755.014 305.962c15.945 8.08 31.947 16.047 47.796 24.31 4.25 2.216 8.032 5.33 11.834 8.397a107.606 107.606 0 01-4.632 4.812c-19.98 19.563-35.375 42.328-47.048 67.653-7.637 16.568-13.876 33.62-16.967 51.693-22.636-10.446-43.703-23.516-63.625-38.543 2.49-6.306 4.843-12.232 7.083-18.201 10.918-29.1 25.302-56.316 44.106-81.118 5.394-7.113 10.992-14.073 16.497-21.103.812.267 1.624.533 2.725 1.291.936.598 1.584.704 2.231.81z"
        opacity="1"
    ></path>
    <path
        fill="#F26A32"
        d="M749.811 303.617c-5.258 7.275-10.856 14.235-16.25 21.348-18.804 24.802-33.188 52.019-44.106 81.118-2.24 5.969-4.593 11.895-7.27 17.916-11.537-8.835-22.97-17.43-33.775-26.75-9.069-7.825-17.406-16.497-26.239-25.452-1.053-2.368-1.935-4.079-2.887-5.928.735-1.314 1.69-2.68 2.31-4.182 9.449-22.866 21.318-44.42 35-65.008 3.911-5.886 7.648-11.887 11.464-17.835 10.782 2.416 21.782 4.135 32.297 7.407 16.574 5.158 32.823 11.36 49.456 17.366z"
        opacity="1"
    ></path>
    <path
        fill="#F37232"
        d="M619.604 493.534c-1.358 10.357-3.394 20.562-4.795 30.854-1.292 9.485-2.556 19.056-2.664 28.602-.187 16.602-.258 33.28 1.093 49.805 1.207 14.756 4.4 29.35 6.666 44.478a1279.455 1279.455 0 01-59.557-3.527c-4.367-1.96-7.849-3.751-8.332-8.58-1.642-16.412-4.58-32.808-4.715-49.23-.188-22.806 1.41-45.649 2.909-68.433.417-6.34-.157-13.757 6.52-18.198.284-.19.194-.941.278-1.431.707-.165 1.414-.33 2.634-.12 1.155.101 1.796-.172 2.438-.446 19.04-1.296 38.082-2.591 57.525-3.774z"
        opacity="1"
    ></path>
    <path
        fill="#F26432"
        d="M556.573 497.838c.35.526.44 1.278.155 1.467-6.676 4.441-6.102 11.858-6.519 18.198-1.498 22.784-3.097 45.627-2.909 68.434.135 16.421 3.073 32.817 4.715 49.23.483 4.828 3.965 6.619 7.913 8.452-13.415-1.372-26.945-2.82-40.37-4.93-11.666-1.834-23.214-4.417-35.193-6.808-7.985-4.433-6.833-12.422-7.085-18.907-.946-24.41-1.1-48.855-1.162-73.288-.019-7.238 1.06-14.502 2.008-21.705.312-2.377 1.791-4.6 2.793-7.234 21.392-4.13 42.723-7.952 64.072-11.675 3.678-.641 7.43-.857 11.582-1.234z"
        opacity="1"
    ></path>
    <path
        fill="#F7922C"
        d="M697.556 644.253c-6.64-.619-7.566-5.53-8.32-10.15-2.226-13.667-4.791-27.322-6.064-41.09-1.172-12.685-2.041-25.62-.884-38.248 1.637-17.86 5.309-35.529 7.99-53.298.505-3.346 3.036-3.381 5.571-4.33 20.692 2.552 41.145 5.408 61.723 8.783-.816 2.03-2.293 3.437-2.614 5.07-2.77 14.094-6.646 28.136-7.639 42.372-1.405 20.152-1.136 40.52 3.785 60.376 1.805 7.283 4.632 14.313 6.992 21.459-15.727 2.592-31.447 5.24-47.189 7.741-4.265.678-8.6.914-13.35 1.315z"
        opacity="1"
    ></path>
    <path
        fill="#1C439A"
        d="M768.196 1059.846a2443.637 2443.637 0 0116.447 5.279c-3.38 9.299-6.533 17.967-9.27 25.495-10.88-1.717-21.11-3.555-31.411-4.822-3.175-.39-6.71.287-9.79 1.33-9.61 3.255-11.618 14.153-3.621 20.464 3.578 2.824 8.043 4.583 12.23 6.562 10.046 4.75 20.834 8.3 30.114 14.226 18.158 11.594 23.223 34.405 13.032 53.267-5.433 10.058-14.155 16.293-24.727 19.835-25.329 8.486-49.827 3.876-74.396-4.925l9.738-26.058c8.228 2.403 16.001 5.669 24.064 6.724 6.884.9 14.243-.044 21.125-1.462 6.023-1.241 10.164-5.727 10.925-12.248.735-6.312-2.212-11.307-7.487-14.161-6.69-3.62-13.916-6.242-20.849-9.429-5.577-2.564-11.454-4.738-16.52-8.105-22.476-14.936-23.3-47.143-1.758-63.45 14.296-10.823 30.817-12.577 47.984-10.957 4.621.436 9.179 1.546 14.17 2.435z"
        opacity="1"
    ></path>
    <path
        fill="#F7922C"
        d="M746.302 463.038c2.786-18.284 9.025-35.336 16.662-51.904 11.673-25.325 27.067-48.09 47.048-67.653 1.497-1.465 2.96-2.965 4.794-4.497 2.933 1.312 5.766 2.34 8.046 4.089 11.917 9.143 23.688 18.476 35.53 27.718 1.149.898 2.43 1.627 3.498 2.87-2.128 1.64-4.5 2.476-6.015 4.109-7.098 7.65-14.417 15.163-20.813 23.382-14.846 19.076-25.255 40.51-31.442 63.871-1.697 6.405-4.935 12.787-2.618 19.795-15.374-6.108-30.747-12.216-46.123-18.32-2.75-1.093-5.508-2.167-8.567-3.46z"
        opacity="1"
    ></path>
    <path
        fill="#1A419A"
        d="M1313.863 881V747.61c11.3-2.642 22.524-5.266 34.054-7.96v215.146h-34.054V881z"
        opacity="1"
    ></path>
    <path
        fill="#FAA228"
        d="M758.505 635.205c-2.77-7.154-5.596-14.184-7.401-21.467-4.92-19.855-5.19-40.224-3.785-60.376.993-14.236 4.87-28.278 7.64-42.371.32-1.634 1.797-3.04 2.933-4.857 18.93 4.04 37.665 8.386 56.7 13.257-2.045 12.495-5.402 24.375-6.455 36.457-1.07 12.261-.63 24.797.586 37.07.97 9.783 4.104 19.35 6.277 29.014-18.695 4.427-37.39 8.854-56.495 13.273z"
        opacity="1"
    ></path>
    <path
        fill="#F15833"
        d="M667.939 278.556c-3.697 6.236-7.434 12.237-11.345 18.123-13.682 20.588-25.551 42.142-35 65.008-.62 1.503-1.575 2.868-2.31 4.182.952 1.85 1.834 3.56 2.736 5.627-21.393-20.949-40.185-44.437-57.361-69.218-8.223-11.864-15.841-24.148-23.852-36.423.928-.547 1.295-.952 1.667-.956 36.384-.451 72.44 2.936 108.209 9.468 5.758 1.051 11.427 2.588 17.256 4.189z"
        opacity="1"
    ></path>
    <path
        fill="#1C439A"
        d="M974.754 1117c-.471-14.935-.942-29.37-1.45-44.916 27.927-11.774 57.588-19.78 90.146-12.035l-10.276 29.335c-15.306-3.98-30.34-3.199-44.853.957v112.033h-33.567v-85.373z"
        opacity="1"
    ></path>
    <path
        fill="#F9A129"
        d="M801.336 484.983c-2.661-7.173.577-13.555 2.274-19.96 6.187-23.36 16.596-44.795 31.442-63.871 6.396-8.219 13.715-15.732 20.813-23.382 1.514-1.633 3.887-2.469 6.217-3.814 10.482 9.32 20.613 18.781 30.743 28.864-5.867 6.898-11.912 13.018-17.56 19.484-10.688 12.234-18.925 26.055-24.183 41.394-3.635 10.602-6.125 21.597-9.126 32.417-13.425-3.656-26.85-7.311-40.62-11.132z"
        opacity="1"
    ></path>
    <path
        fill="#FCB421"
        d="M815.391 621.949c-2.564-9.68-5.698-19.248-6.668-29.03-1.217-12.274-1.655-24.81-.586-37.071 1.053-12.082 4.41-23.962 6.809-36.305 17.843 5.167 35.632 10.707 53.782 16.715 1.004.543 1.648.618 2.292.693.562.1 1.124.201 1.851.938-.383 3.213-.791 5.828-1.502 8.36-4.574 16.296-4.475 32.613.293 48.781 1.155 3.919 1.705 7.022-1.654 9.85-18.075 5.695-36.15 11.39-54.617 17.069z"
        opacity="1"
    ></path>
    <path
        fill="#F58230"
        d="M1035.607 331.193c-.07-12.529-.27-25.059-.134-37.586.043-3.943.985-7.878 1.981-12.305 1.689-4.539 4.044-7.24 8.525-7.811 8.513-1.086 16.984-3.046 25.513-3.315 11.757-.369 23.646-.293 35.303 1.08 9.182 1.08 18.1 4.408 27.135 6.738.105.425.21.85.033 1.74.031 1.06.343 1.653.655 2.247.299 14.783.597 29.566.375 44.576-13.89-6.656-28.478-9.062-43.138-10.408-15.996-1.469-31.71 1.213-47.095 5.761-4.294 1.27-8.908 2.038-8.144 8.263.036.294-.656.678-1.01 1.02z"
        opacity="1"
    ></path>
    <path
        fill="#F5822F"
        d="M970.43 253.99c6.478 11.442 12.956 22.883 19.094 34.668-4.409 1.01-8.52 1.482-12.538 2.375-22.1 4.914-42.677 13.428-60.882 27.012-8.741 6.523-17.05 13.648-25.277 20.82-2.194 1.912-3.362 5-5 7.549-6.036-11.354-12.071-22.707-18.009-34.826 1.15-2.563 1.86-4.717 3.304-6.105 19.78-18.993 42.618-33.247 68.34-42.616 10.065-3.666 20.63-5.958 30.967-8.876z"
        opacity="1"
    ></path>
    <path
        fill="#FCAF23"
        d="M842.264 496.334c2.693-11.039 5.183-22.034 8.818-32.636 5.258-15.34 13.495-29.16 24.183-41.394 5.648-6.466 11.693-12.586 17.7-19.186 10.134 10.81 20.128 21.943 29.957 33.525-18.496 16.138-30.662 35.447-35.194 59.383-.537 2.838-2.487 5.408-3.781 8.103-13.792-2.526-27.584-5.05-41.683-7.795z"
        opacity="1"
    ></path>
    <path
        fill="#F37431"
        d="M970.311 253.647c-10.219 3.262-20.784 5.554-30.849 9.22-25.722 9.369-48.56 23.623-68.34 42.616-1.445 1.388-2.155 3.542-3.258 5.752-2.331-4.877-4.611-10.167-6.643-16.048-1.51-5.118-3.27-9.647-5.029-14.175-.146-.41-.292-.82-.169-1.737-.43-2.094-1.132-3.68-1.834-5.266-.14-.415-.281-.83-.093-1.712a374.45 374.45 0 0111.718-9.2c16.868-12.756 35.068-23.28 54.662-31.146 8.655-3.474 17.919-5.432 26.906-8.078 7.604 9.81 15.208 19.62 22.93 29.774z"
        opacity="1"
    ></path>
    <path
        fill="#F7922C"
        d="M885.901 346.74c1.564-2.875 2.732-5.963 4.926-7.875 8.227-7.172 16.536-14.297 25.277-20.82 18.205-13.584 38.782-22.098 60.882-27.012 4.017-.893 8.13-1.365 12.635-2.032 4.72 10.747 9.002 21.495 12.895 32.568-2.172.043-4.023-.695-5.73-.446-14.675 2.141-28.79 6.329-42.199 12.646-16.096 7.583-29.949 18.369-42.29 31.07-2.65 2.728-4.348 6.384-6.484 9.613-6.612-9.129-13.224-18.257-19.912-27.712z"
        opacity="1"
    ></path>
    <path
        fill="#F26A32"
        d="M1133.959 277.58c-9.064-1.916-17.982-5.244-27.164-6.325-11.657-1.372-23.546-1.448-35.303-1.079-8.53.269-17 2.229-25.513 3.315-4.481.572-6.836 3.272-8.4 7.405 2.225-19.84 9.072-38.403 18.355-56.654 3.22-.237 5.73-.019 8.187-.286 15.996-1.735 31.93-1.518 47.855.9 1.681.256 3.577-.896 5.373-1.395 8.36 17.03 13.641 35.013 16.61 54.118z"
        opacity="1"
    ></path>
    <path
        fill="#F8982B"
        d="M1035.66 331.624c.3-.773.992-1.157.956-1.45-.764-6.226 3.85-6.994 8.144-8.264 15.386-4.548 31.099-7.23 47.095-5.761 14.66 1.346 29.248 3.752 42.954 10.778-2.45 13.413-5.237 26.68-8.496 39.88-9.073-3.304-17.475-7.34-26.334-9.525-7.243-1.786-15.274-2.812-22.522-1.594-11.958 2.008-23.566 6.097-35.32 9.31-2.141-10.981-4.282-21.962-6.476-33.374z"
        opacity="1"
    ></path>
    <path
        fill="#F26732"
        d="M947.23 223.565c-8.835 2.954-18.099 4.912-26.754 8.386-19.594 7.865-37.794 18.39-54.662 31.146-3.815 2.886-7.594 5.82-11.721 8.87a492.9 492.9 0 01-6.959-33.706c-.129-2.186-.581-3.72-1.033-5.254-.088-.438-.176-.876.072-1.88 1.811-2.742 2.795-5.756 4.842-6.958 15.159-8.903 30.328-17.835 45.939-25.898 5.71-2.95 11.57-7.558 18.99-5.254 8.364 8.135 16.727 16.271 25.093 24.404 2.007 1.951 4.026 3.89 6.192 6.144z"
        opacity="1"
    ></path>
    <path
        fill="#FFC813"
        d="M870.38 604.862c2.987-2.81 2.437-5.913 1.282-9.832-4.768-16.168-4.867-32.485-.293-48.782.71-2.53 1.12-5.146 1.704-8.152 23.678 8.865 47.329 18.138 70.953 27.475 3.631 1.435 7.146 3.165 10.714 4.758l.378 1.714c-28.122 10.934-56.243 21.868-84.737 32.82z"
        opacity="1"
    ></path>
    <path
        fill="#F99E2A"
        d="M905.923 374.75c2.026-3.527 3.723-7.183 6.375-9.911 12.34-12.701 26.193-23.487 42.29-31.07 13.407-6.317 27.523-10.505 42.199-12.646 1.706-.249 3.557.49 5.736.822 2.478 7.715 4.562 15.377 6.448 23.788-3.322 1.9-6.357 3.568-9.582 4.12-29.371 5.023-53.907 18.235-72.392 41.996-.815 1.048-2.324 1.556-3.51 2.317-5.818-6.373-11.636-12.746-17.564-19.416z"
        opacity="1"
    ></path>
    <path
        fill="#F15933"
        d="M915.77 192.732c-7.246-2.019-13.106 2.59-18.816 5.54-15.61 8.062-30.78 16.994-45.94 25.897-2.046 1.202-3.03 4.216-4.79 6.624-.931-3.81-2.11-7.848-2.14-11.895-.173-24.747-.086-49.496-.086-74.937 25.937 13.92 49.424 30.226 71.773 48.77z"
        opacity="1"
    ></path>
    <path
        fill="#F58230"
        d="M1254.04 366.017c-6.104 10.367-12.207 20.734-18.659 30.903-.978-1.536-1.377-3.057-2.272-4.185-12.137-15.302-26.52-27.951-44.954-34.938-8.404-3.185-17.485-4.587-26.258-6.798 6.419-9.926 12.837-19.852 19.893-29.8 3.62 1 6.612 1.987 9.58 3.046 16.05 5.727 31.198 13.086 43.993 24.615 6.28 5.658 12.454 11.434 18.677 17.157z"
        opacity="1"
    ></path>
    <path
        fill="#F36C32"
        d="M1254.286 365.771c-6.469-5.477-12.643-11.253-18.923-16.911-12.795-11.529-27.944-18.888-43.993-24.615-2.968-1.06-5.96-2.047-9.3-3.22 9.006-9.1 18.371-18.048 28.482-27.044 8.702 3.554 17.152 6.364 24.499 10.943 10.76 6.706 20.73 14.679 31.037 22.112-.042.755-.084 1.51-.554 2.684-.467 1.37-.508 2.32-.549 3.27-3.484 10.845-6.968 21.69-10.699 32.781z"
        opacity="1"
    ></path>
    <path
        fill="#FEC019"
        d="M884.287 504.325c.954-2.89 2.904-5.461 3.441-8.299 4.532-23.936 16.698-43.245 35.37-59.087 8.46 10.376 16.58 20.907 24.798 32.122-.758 1.804-1.495 3.048-2.492 4.028-10.088 9.916-15.783 21.942-17.412 35.946-14.455-1.505-28.91-3.01-43.705-4.71z"
        opacity="1"
    ></path>
    <path
        fill="#F7952B"
        d="M1161.64 351.226c9.03 1.984 18.11 3.386 26.515 6.571 18.434 6.987 32.817 19.636 44.954 34.938.895 1.128 1.294 2.65 1.977 4.382-7.077 8.255-14.207 16.117-21.685 23.725-1.008-1.918-1.434-3.73-2.367-5.225-5.75-9.226-13.285-16.725-22.314-22.77-11.69-7.824-24.794-11.341-38.578-12.846 3.746-9.516 7.493-19.032 11.497-28.775z"
        opacity="1"
    ></path>
    <path
        fill="#FBAE24"
        d="M1042.084 365.377c11.807-3.592 23.415-7.681 35.373-9.69 7.248-1.217 15.279-.191 22.522 1.595 8.859 2.185 17.261 6.22 26.056 9.774-3.461 9.67-7.118 19.022-11.38 28.66-2.366-.082-4.28-.12-5.858-.868-16.932-8.025-33.794-8.012-50.695.066-1.306.624-2.839.774-4.266 1.145-3.935-10.101-7.87-20.202-11.752-30.682z"
        opacity="1"
    ></path>
    <path
        fill="#F68C20"
        d="M392.061 1400.223c-.4 3.32-1.943 4.181-4.852 3.85-5.893-.672-9.458-3.238-11.234-9.036-3.457-11.284-6.778-22.609-10.479-35-.797 1.985-1.312 3.035-1.649 4.14-3.64 11.93-7.44 23.817-10.765 35.835-1.074 3.878-3.275 5.205-6.329 3.707-3.22-1.579-7.494-3.782-8.483-6.678-6.009-17.595-11.212-35.465-16.837-53.74h12.659l11.658 42.805.952-.064 12.405-42.932h13.08l13.318 44.882 11.658-44.862h11.398c-5.54 19.14-10.974 37.916-16.5 57.093z"
        opacity="1"
    ></path>
    <path
        fill="#FBAA25"
        d="M923.67 394.465c1.003-1.06 2.512-1.568 3.327-2.616 18.485-23.761 43.02-36.973 72.392-41.996 3.225-.552 6.26-2.22 9.552-3.718 1.998 9.125 3.826 18.596 5.217 28.468-4.04.792-7.688.938-11.235 1.617-24.428 4.68-44.354 16.617-58.998 36.953-6.691-6.136-13.382-12.273-20.256-18.708z"
        opacity="1"
    ></path>
    <path
        fill="#1B429A"
        d="M462.124 769.901c1.509 1.577 2.766 2.902 4.106 4.316l22.29-22.996 23.206 25.292-22.105 23.322-21.05-23.487-24.114 22.538-22.68-22.657 22.621-24.077 17.726 17.75zM822.112 763.103c3.745-3.8 7.244-7.346 11.206-11.361l22.41 24.854-22.52 23.728-21.143-23.697-23.388 22.152-22.823-22.62 22.594-23.88 22.206 22.31c3.963-3.97 7.588-7.601 11.458-11.486z"
        opacity="1"
    ></path>
    <path
        fill="#F68C20"
        d="M569.405 1362.334c2.763-5.733 5.17-11.232 8.03-16.483.74-1.356 2.85-2.592 4.436-2.74 4.11-.382 8.28-.128 12.796-.128v60.12h-10.531v-46.546l-.875-.311c-1.597 3.14-3.22 6.268-4.786 9.423-3.548 7.147-7.05 14.316-10.606 21.458-1.924 3.864-4.606 4.395-7.639 1.175-1.669-1.773-2.871-4.064-3.978-6.274-4.273-8.533-8.423-17.127-13.543-25.45v46.476h-10.797v-60.066c4.863 0 9.643-.248 14.365.162 1.287.111 2.822 1.99 3.53 3.412 4.515 9.063 8.83 18.226 13.611 28.193 2.165-4.516 3.982-8.305 5.987-12.42z"
        opacity="1"
    ></path>
    <path
        fill="#F5822F"
        d="M1306.133 478.066c-8.797 5.382-17.595 10.765-26.766 15.747-.69-3.515-.864-6.65-1.346-9.737-3.785-24.23-15.476-43.69-35.296-58.21 9.163-4.357 18.327-8.713 27.974-12.76 14.743 15.704 25.93 32.89 31.6 53.34 1.088 3.925 2.547 7.749 3.834 11.62z"
        opacity="1"
    ></path>
    <path
        fill="#FBAA25"
        d="M1149.968 380.342c13.958 1.164 27.062 4.68 38.752 12.506 9.029 6.044 16.565 13.543 22.314 22.77.933 1.495 1.359 3.306 2.057 5.373-7.453 5.894-14.945 11.386-23.091 16.802-1.746-1.256-3.055-2.299-3.895-3.635-8.547-13.587-20.405-21.54-36.78-22.287-1.525-.07-2.97-1.904-4.453-2.919 1.641-9.423 3.282-18.846 5.096-28.61z"
        opacity="1"
    ></path>
    <path
        fill="#F36C32"
        d="M1306.443 477.947c-1.597-3.752-3.056-7.576-4.144-11.502-5.67-20.449-16.857-37.635-31.26-53.353 9.249-1.977 18.64-3.633 28.74-4.927 3.162 1.288 6.775 1.494 7.875 3.262 5.9 9.493 11.191 19.366 16.658 29.127 1.991 3.556 3.886 7.166 5.824 10.752-7.794 8.84-15.589 17.681-23.693 26.64z"
        opacity="1"
    ></path>
    <path
        fill="#F7952B"
        d="M1242.402 425.942c20.143 14.443 31.834 33.904 35.62 58.134.481 3.087.656 6.222.97 9.814a244.485 244.485 0 01-25.52 7.496c-.046-2.211.532-4 .483-5.773-.555-20.189-9.524-36.131-25.056-48.559-2.04-1.631-4.948-2.176-7.454-3.224 6.878-5.938 13.756-11.875 20.957-17.888z"
        opacity="1"
    ></path>
    <path
        fill="#F68C20"
        d="M1187.466 1393.916c0-15.655.081-30.821-.068-45.986-.032-3.27.74-4.972 4.292-5.035 5.81-.103 11.666-1.051 17.41-.564 7.429.63 14.167 3.365 16.425 11.554 2.098 7.608-.52 13.644-6.055 17.036 2.927 4.048 6.854 7.523 8.259 11.822 2.995 9.166-2.389 17.306-12.32 20.005-9.026 2.453-18.13 1.8-27.943-.076v-8.756m28.62-4.62c2.653-9.515-3.366-13.74-17.08-11.768v16.567c6.148.09 12.148 1.279 17.08-4.798m-8.201-22.281c5.778-1.967 8.065-5.49 6.585-10.143-1.567-4.928-7.558-6.615-15.304-4.34v14.588c2.902 0 5.371 0 8.719-.105z"
        opacity="1"
    ></path>
    <path
        fill="#FCB421"
        d="M944.07 413.475c14.499-20.638 34.425-32.575 58.853-37.255 3.547-.679 7.195-.825 11.187-1.224.96 5.349 1.53 10.704 1.81 16.647-.171 1.175-.054 1.76.064 2.347.007 1.395.013 2.791-.48 4.599-22.686 1.554-39.967 11.443-52.6 29.623-6.23-4.812-12.46-9.624-18.835-14.737z"
        opacity="1"
    ></path>
    <path
        fill="#F68C20"
        d="M935.992 1366.053c4.322-19.025 18.626-27.925 36.552-23.08a27.674 27.674 0 015.11 1.952c13.826 6.906 19.353 27.735 11.698 43.927-6.505 13.76-23.388 19.517-37.968 12.948-10.55-4.753-16.978-17.133-15.995-30.863.107-1.493.364-2.974.603-4.884m23.277-13.926c-2.727 2.07-6.398 3.582-8.009 6.31-5.563 9.424-5.662 19.512-.23 28.983 5.849 10.2 20.527 9.75 26.365-.548 3.41-6.014 3.926-12.565 2.798-19.367-1.939-11.69-8.402-16.776-20.924-15.378z"
        opacity="1"
    ></path>
    <path
        fill="#F15933"
        d="M1266.242 326.754c-10.46-7.151-20.431-15.124-31.191-21.83-7.347-4.58-15.797-7.39-24.19-11.02 15.938-12.66 34.694-20.235 55.782-26.726.593 13.978 1.439 27.142 1.586 40.313.07 6.32-1.18 12.653-1.987 19.263zM1117.268 223.128c-1.715.832-3.61 1.984-5.292 1.729-15.925-2.419-31.859-2.636-47.855-.9-2.457.266-4.967.048-7.94.058 7.392-18.273 19.203-34.024 31.367-50.113 12.16 15.255 21.184 31.9 29.72 49.226z"
        opacity="1"
    ></path>
    <path
        fill="#F68C20"
        d="M643.12 1343.546c10.457-1.261 10.443-1.256 14.138 8.04 6.75 16.979 13.519 33.951 20.608 51.749-3.976 0-7.562.281-11.055-.167-1.09-.14-2.258-2.11-2.829-3.478-4.892-11.72-4.853-11.736-17.361-11.736-10.442 0-11.147-.205-14.031 9.673-2.516 8.62-8.747 4.534-14.643 6.13 8.552-20.554 16.733-40.218 25.172-60.21m3.566 17.722l-6.38 16.687h15.135c-2.331-6.305-4.491-12.153-6.731-17.971-.012-.03-1.16.378-2.024 1.284z"
        opacity="1"
    ></path>
    <path
        fill="#F68B1E"
        d="M733.306 1401.97c-6.879-8.082-13.499-15.888-20.118-23.695l-1.057.505v24.33h-10.943v-59.857h10.756v22.895c5.573-6.116 10.92-10.693 14.614-16.349 5.218-7.991 12.361-7.202 20.836-6.596l-26.07 28.43 27.027 30.831-.417 1.328c-4.79-.516-9.58-1.03-14.628-1.821z"
        opacity="1"
    ></path>
    <path
        fill="#FBAA25"
        d="M1221.185 444.002c2.766.876 5.674 1.42 7.714 3.052 15.532 12.428 24.501 28.37 25.056 48.56.05 1.771-.529 3.56-.88 5.735-7.43.897-14.795 1.402-22.62 1.35-.12-16.164-5.685-28.832-18.732-37.963-1.376-.963-1.866-3.189-2.767-4.829 3.99-5.244 7.98-10.488 12.23-15.905z"
        opacity="1"
    ></path>
    <path
        fill="#F68B1E"
        d="M772.42 1360.002v-16.73h35.21v8.997h-23.528v14.746h19.46v9.335h-19.493v17.304h24.459v9.34H772.42v-42.992zM443.358 1366.641c6.5.332 12.647.332 19.191.332v9.428h-19.31v17.38h24.235v9.175h-35.562v-59.709h34.615v9.175h-23.522c0 5.004 0 9.446.353 14.22z"
        opacity="1"
    ></path>
    <path
        fill="#FEC416"
        d="M963.063 428.507c12.474-18.475 29.755-28.364 52.375-29.505a228.795 228.795 0 011.744 25.567c-9.679 1.85-18.48 4.232-25.575 10.675-2.643 2.4-5.042 5.07-7.552 7.616-6.944-4.686-13.889-9.372-20.992-14.353z"
        opacity="1"
    ></path>
    <path
        fill="#F68C20"
        d="M900.59 1377.797c-5.523 1.09-10.692 2.033-16.534 3.098v22.177h-11.109c-.135-.907-.396-1.843-.397-2.78-.025-17.618.056-35.236-.086-52.854-.026-3.18.944-4.55 4.13-4.635 5.468-.145 10.952-.919 16.39-.647 9.967.5 16.738 6.085 18.502 14.49 1.82 8.667-1.886 16.049-10.896 21.151m-13.03-7.185c2.114-.307 4.369-.248 6.313-.995 4.288-1.649 6.327-4.968 6.291-9.66-.028-3.786-1.64-6.7-5.164-7.555-3.48-.846-7.218-.626-11.154-.896 0 6.102-.164 11.057.13 15.985.064 1.055 1.792 2.01 3.584 3.12zM1086.141 1402.902c-1.974-.586-3.535-1.1-5.587-1.775l2.523-9c4.203.825 7.9 1.739 11.652 2.217 2.267.289 4.908.539 6.864-.342 2.47-1.113 5.27-2.98 6.382-5.273 1.584-3.266-.718-6.136-3.708-7.764-3.936-2.142-8.078-3.9-12.094-5.9-5.078-2.529-9.23-5.937-10.759-11.747-2.325-8.843 1.827-16.71 10.698-19.775 8.75-3.025 17.283-1.68 26.134 1.582l-3.17 8.25c-5.042-.573-9.755-1.377-14.492-1.557-3.519-.135-6.706 1.275-7.493 5.222-.774 3.882 2.036 5.725 4.952 7.166 3.574 1.766 7.316 3.195 10.874 4.99 8.903 4.49 12.895 11.34 11.554 19.514-1.317 8.027-8.045 14.244-17.575 15.07-5.384.467-10.89-.49-16.755-.878zM1019.876 1349.022c8.397-8.083 21.611-9.449 34.077-3.595l-3.033 8.114c-4.623-.659-8.992-1.61-13.394-1.808-3.744-.168-7.601.702-8.514 5.24-.89 4.419 2.55 6.127 5.723 7.687 3.43 1.686 7.047 2.996 10.437 4.751 8.5 4.4 12.214 10.764 11.195 18.768-.985 7.743-6.503 13.397-15.612 15.324-8.143 1.724-16.125.703-24.302-2.442l2.427-8.942c4.004.79 7.676 1.721 11.406 2.179 2.433.299 5.243.58 7.354-.344 2.462-1.077 5.231-3.08 6.27-5.397 1.472-3.283-.882-6.093-3.91-7.69-4.701-2.479-9.699-4.43-14.265-7.122-9.349-5.513-11.555-14.928-5.859-24.723z"
        opacity="1"
    ></path>
    <path
        fill="#FEC416"
        d="M1144.646 409.306c1.709.661 3.154 2.495 4.68 2.565 16.374.747 28.232 8.7 36.779 22.287.84 1.336 2.149 2.379 3.55 3.694-12.783 8.62-27.282 13.79-42.663 18.697-2.96-15.837-3.693-31.301-2.346-47.243z"
        opacity="1"
    ></path>
    <path
        fill="#F68B1E"
        d="M1313.805 1349.073v-5.785h34.834v9.087h-23.4v14.745h19.581v9.317h-19.594v17.34h24.438v9.166h-35.858v-53.87z"
        opacity="1"
    ></path>
    <path
        fill="#FEC019"
        d="M1053.89 396.418c1.373-.73 2.906-.88 4.212-1.504 16.901-8.078 33.763-8.09 50.695-.066 1.578.748 3.492.786 5.646 1.156a297.01 297.01 0 01-12.766 22.745c-2.345-.258-4.096-.695-5.788-1.295-10.188-3.612-20.027-3.93-29.143 2.956-4.268-7.877-8.536-15.755-12.857-23.992z"
        opacity="1"
    ></path>
    <path
        fill="#FFD00C"
        d="M928.37 509.183c1.251-14.152 6.946-26.178 17.034-36.094.997-.98 1.734-2.224 2.597-3.704 9.181 13.183 18.356 26.725 27.532 40.266l-.822 1.691c-15.321-.67-30.642-1.34-46.341-2.16z"
        opacity="1"
    ></path>
    <path
        fill="#1C439A"
        d="M827.707 731.326c2.246 2.021 4.24 3.787 6.803 6.055l-24.571 22.035-21.682-21.686c7.1-7.527 14.51-15.38 22.31-23.65l17.14 17.246z"
        opacity="1"
    ></path>
    <path
        fill="#FEC416"
        d="M1208.68 460.106c1.177 1.441 1.667 3.667 3.043 4.63 13.047 9.131 18.611 21.799 18.272 37.865-13.654.898-26.894-1.62-41.733-4.915 7.029-13.043 13.587-25.212 20.419-37.58z"
        opacity="1"
    ></path>
    <path
        fill="#F68B1E"
        d="M1265.343 1360.002v33.745h24.577v9.345h-35.561v-59.812h10.984v16.722z"
        opacity="1"
    ></path>
    <path
        fill="#F15933"
        d="M1330.413 451.089c-2.215-3.369-4.11-6.979-6.101-10.535-5.467-9.761-10.757-19.634-16.658-29.127-1.1-1.768-4.713-1.974-7.421-3.194 6.607.051 13.49.168 20.326.798 8.366.771 16.695 1.946 25.032 3.015 1.27.163 2.492.699 4.071 1.16-4.888 13.512-11.356 25.873-19.249 37.883z"
        opacity="1"
    ></path>
    <path
        fill="#FFD00C"
        d="M984.287 443.109c2.278-2.795 4.677-5.465 7.32-7.865 7.096-6.443 15.896-8.825 25.449-10.225.148 12.325-.072 24.67-.319 38.542-11.634-7.296-21.926-13.75-32.45-20.452z"
        opacity="1"
    ></path>
    <path
        fill="#F68B1E"
        d="M1147.073 1389.99v-46.729h10.816v59.666h-10.816v-12.936z"
        opacity="1"
    ></path>
    <path
        fill="#FFD00C"
        d="M1066.816 420.744c9.046-7.22 18.885-6.902 29.073-3.29 1.692.6 3.443 1.037 5.554 1.551-5.526 8.707-11.44 17.412-18.052 27.144-5.885-8.938-11.195-17.005-16.575-25.405z"
        opacity="1"
    ></path>
    <path
        fill="#F26732"
        d="M856.202 281.383c1.75 4.157 3.509 8.686 5.005 13.424-1.84-4.21-3.418-8.631-5.005-13.424z"
        opacity="1"
    ></path>
    <path
        fill="#F15933"
        d="M846.046 233.383c.507 1.158.96 2.692 1.121 4.449-.585-1.21-.88-2.641-1.121-4.449z"
        opacity="1"
    ></path>
    <path
        fill="#F26732"
        d="M854.18 274.35a17.524 17.524 0 011.829 4.598c-.803-1.298-1.321-2.777-1.83-4.598z"
        opacity="1"
    ></path>
    <path
        fill="#F15933"
        d="M1265.146 332.722c-.12-.682-.08-1.632.262-2.644.167.751.033 1.564-.262 2.644z"
        opacity="1"
    ></path>
    <path
        fill="#F26A32"
        d="M1134.67 281.71c-.364-.323-.676-.917-.747-1.648.427.367.613.872.747 1.648zM754.816 305.755c-.45.102-1.097-.004-1.777-.4.505-.13 1.042.031 1.777.4z"
        opacity="1"
    ></path>
    <path
        fill="#FFC813"
        d="M870.818 536.755c-.442.12-1.086.046-1.767-.312.496-.15 1.03-.017 1.767.312z"
        opacity="1"
    ></path>
    <path
        fill="#FEC416"
        d="M1016.138 393.822c-.272-.418-.39-1.004-.266-1.728.3.428.36.994.266 1.728z"
        opacity="1"
    ></path>
    <path
        fill="#F26432"
        d="M561.705 497.25c-.268.332-.91.605-1.701.548.342-.423.835-.515 1.701-.549z"
        opacity="1"
    ></path>
    <path
        fill="#FDFDFE"
        d="M1055.738 913.329a2955.719 2955.719 0 01-10.936-8.79c6.077-10.302 11.708-20.103 17.629-29.726 1.72-2.795 4.022-5.355 6.482-7.545 7.62-6.786 17.927-6.459 23.533 1.996 7.51 11.326 14.256 23.268 20.169 35.507 4.325 8.954-1.133 16.647-11.022 16.686-8.967.035-18.051-.042-26.869-1.432-6.41-1.01-12.471-4.243-18.986-6.696zM481.907 882.049c12.205 10.334 18.22 23.804 22.606 39.336-2.923 0-5.313.017-7.703-.003-9.322-.08-18.714.492-27.937-.507-5.55-.6-11.45-2.722-16.108-5.801-9.696-6.408-11.733-19.038-5.673-28.752 6.216-9.966 18.363-13.504 28.662-8.249 2.06 1.05 3.916 2.497 6.153 3.976zM1259.549 1152.34c-5.562-14.294-5.504-28.381-.598-42.367 5.174-14.748 16.56-23.05 32.185-23.035 7.864.007 15.727 1.408 22.732 2.095 0 27.696.049 53.978-.14 80.259-.01 1.366-1.776 3.418-3.187 3.97-20.781 8.142-41.35-.267-50.992-20.921zM1154.16 1094.895c5.031 6.6 7.184 13.738 7.068 21.896h-57.95c-1.069-12.309 5.764-24.398 16.297-29.062 11.764-5.21 25.392-2.48 34.585 7.166zM590.549 1176.693c-5.826-1.573-10.781-3.762-13.706-8.966-3.894-6.929-2.512-14.83 4.404-18.716 5.552-3.119 11.89-4.94 18.016-6.913 8.506-2.74 17.139-5.084 26.295-7.767v39.329c-10.877 3.43-22.522 5.355-35.01 3.033zM1215.906 1389.646c-4.752 5.728-10.752 4.538-16.9 4.449v-16.567c13.714-1.973 19.733 2.253 16.9 12.118zM1207.446 1367.069c-2.909.052-5.378.052-8.28.052v-14.587c7.746-2.276 13.737-.589 15.304 4.339 1.48 4.654-.807 8.176-7.024 10.196zM959.689 1352.051c12.102-1.322 18.565 3.764 20.504 15.454 1.128 6.802.612 13.353-2.798 19.367-5.838 10.298-20.516 10.747-26.365.548-5.432-9.471-5.333-19.559.23-28.982 1.611-2.729 5.282-4.241 8.429-6.387zM646.809 1360.918c.74-.555 1.888-.963 1.9-.933 2.24 5.818 4.4 11.666 6.731 17.97h-15.135c2.21-5.78 4.295-11.233 6.504-17.037zM887.144 1370.557c-1.376-1.056-3.104-2.011-3.167-3.066-.295-4.928-.13-9.883-.13-15.985 3.935.27 7.674.05 11.153.896 3.523.856 5.136 3.77 5.164 7.555.036 4.692-2.003 8.011-6.29 9.66-1.945.747-4.2.688-6.73.94z"
        opacity="1"
    ></path>
</svg>