<svg
   width="141.83131mm"
   height="34.543945mm"
   viewBox="0 0 141.83131 34.543945"
   version="1.1"
   id="svg58794"
   inkscape:version="1.2 (dc2aeda, 2022-05-15)"
   sodipodi:docname="TayWeb-1.svg"
   xml:space="preserve"
   xmlns:inkscape="http://www.inkscape.org/namespaces/inkscape"
   xmlns:sodipodi="http://sodipodi.sourceforge.net/DTD/sodipodi-0.dtd"
   xmlns="http://www.w3.org/2000/svg"
   xmlns:svg="http://www.w3.org/2000/svg"><sodipodi:namedview
     id="namedview58796"
     pagecolor="#ffffff"
     bordercolor="#000000"
     borderopacity="0.25"
     inkscape:showpageshadow="2"
     inkscape:pageopacity="0.0"
     inkscape:pagecheckerboard="0"
     inkscape:deskcolor="#d1d1d1"
     inkscape:document-units="mm"
     showgrid="false"
     inkscape:zoom="0.24905707"
     inkscape:cx="1405.3004"
     inkscape:cy="7763.2808"
     inkscape:window-width="1440"
     inkscape:window-height="847"
     inkscape:window-x="0"
     inkscape:window-y="25"
     inkscape:window-maximized="0"
     inkscape:current-layer="layer1" /><defs
     id="defs58791"><inkscape:path-effect
       effect="spiro"
       id="path-effect79103"
       is_visible="true"
       lpeversion="1" /></defs><g
     inkscape:label="Layer 1"
     inkscape:groupmode="layer"
     id="layer1"
     transform="translate(-43.460407,-1776.4022)"><g
       id="g79099"
       transform="matrix(0.06748527,0,0,0.06748527,-33.41236,1949.5543)"
       style="fill:#edeef3;fill-opacity:1"><g
         id="g79093"
         transform="matrix(0.84121665,0,0,0.84121665,2305.8412,-2408.171)"
         style="fill:#edeef3;fill-opacity:1"><path
           id="path79077"
           style="fill:#edeef3;fill-opacity:1;stroke:none;stroke-width:1.26902;stroke-opacity:1"
           d="m -1084.5768,-187.35624 a 302.38623,304.24557 0 0 0 -302.3867,304.24415 302.38623,304.24557 0 0 0 302.3867,304.2461 302.38623,304.24557 0 0 0 302.38479,-304.2461 302.38623,304.24557 0 0 0 -302.38479,-304.24415 z m 92.21679,131.822269 c 62.7367,1.3e-4 113.5937,50.4008609 113.5938,112.572268 -0.122,57.673273 -36.267,72.963293 -82.7461,112.212893 -10.4542,12.51618 -8.1956,32.45023 -8.1856,48.66211 0.3966,51.58625 -51.64929,110.41777 -114.38669,110.41797 -62.7375,-2e-4 -113.5937,-50.40198 -113.5937,-112.57422 0.01,-16.01428 0.7148,-31.84287 -5.9043,-43.24805 -47.2733,-30.54706 -83.6322,-57.96132 -83.7032,-114.771484 1e-4,-62.1714073 50.859,-112.570175 113.5957,-112.570315 35.58,0.0085 58.0177,24.442201 88.7168,24.500001 32.0134,0.0603 56.8399,-25.088503 92.61329,-25.201173 z" /><g
           id="g79083"
           transform="matrix(1.2220601,0,0,1.2220601,-687.02451,-574.64263)"
           style="fill:#edeef3;fill-opacity:1"><ellipse
             style="opacity:1;fill:#edeef3;fill-opacity:1;stroke:none;stroke-width:0.859624;stroke-opacity:1"
             id="ellipse79079"
             cx="-248.5851"
             cy="519.1795"
             rx="40.990196"
             ry="40.266838" /><path
             id="path79081"
             style="opacity:1;fill:#edeef3;fill-opacity:1;stroke:none;stroke-width:0.859624;stroke-opacity:1"
             d="m -443.80258,509.79032 a 40.990196,40.266839 0 0 0 -0.0882,1.20646 40.990196,40.266839 0 0 0 40.98955,40.26734 40.990196,40.266839 0 0 0 40.98955,-40.26734 40.990196,40.266839 0 0 0 -0.03,-1.20646 z" /></g><g
           id="g79091"
           transform="matrix(1.0374183,0,0,1.0139692,-1499.995,-444.3035)"
           style="fill:#edeef3;fill-opacity:1"><circle
             style="opacity:1;fill:#edeef3;fill-opacity:1;stroke:none;stroke-opacity:1"
             id="circle79085"
             cx="421.0365"
             cy="589.99091"
             r="9.3563671" /><circle
             style="opacity:1;fill:#edeef3;fill-opacity:1;stroke:none;stroke-opacity:1"
             id="circle79087"
             cx="385.05048"
             cy="589.45111"
             r="9.3563671" /><path
             style="opacity:1;fill:#edeef3;fill-opacity:1;stroke:none;stroke-opacity:1"
             d="m 336.46935,652.24674 c 17.29085,14.94237 39.61641,23.95528 62.43576,25.19022 11.60426,0.628 23.40768,-0.7314 34.26163,-4.88412 10.85395,-4.15272 20.72592,-11.19069 27.4544,-20.66596 1.28991,-1.81649 2.48285,-3.7645 2.96145,-5.94038 0.23929,-1.08794 0.29318,-2.22366 0.0849,-3.31797 -0.20826,-1.0943 -0.6852,-2.14586 -1.42699,-2.9769 -1.13734,-1.2742 -2.84973,-1.96061 -4.55638,-2.02754 -1.70665,-0.0669 -3.40265,0.4471 -4.89908,1.27041 -2.99285,1.64663 -5.15825,4.4243 -7.5253,6.88714 -5.6367,5.8648 -12.7911,10.2021 -20.49441,12.815 -7.70331,2.6129 -15.94309,3.52503 -24.06093,3.00646 -20.07277,-1.28225 -38.50616,-11.01355 -56.1382,-20.69196 -1.95445,-1.07282 -3.95916,-2.16554 -6.16266,-2.50523 -1.10175,-0.16984 -2.24337,-0.14322 -3.31321,0.17007 -1.06984,0.31328 -2.06488,0.92338 -2.75938,1.79537 -0.72493,0.91021 -1.09738,2.07608 -1.12998,3.23924 -0.0326,1.16316 0.26242,2.32238 0.76011,3.37419 0.99538,2.10364 2.74742,3.74028 4.50826,5.26196 z"
             id="path79089"
             sodipodi:nodetypes="sssssssss"
             inkscape:original-d="m 336.46935,652.24674 c 1.37847,3.95746 41.62484,16.79448 62.43576,25.19022 20.81091,8.39573 41.14502,-17.03239 61.71603,-25.55008 20.57101,-8.5177 1.08058,-8.15584 1.61937,-12.23525 0.53879,-4.07943 -8.45847,-1.65329 -16.98076,6.13001 -6.63126,6.05624 -23.22688,14.78274 -44.55534,15.82146 -18.45637,0.89885 -37.42447,-13.79364 -56.1382,-20.69196 -18.71374,-6.89833 -8.15584,-0.35886 -12.23525,-0.53979 -4.07942,-0.18093 2.75993,7.91792 4.13839,11.87539 z"
             inkscape:path-effect="#path-effect79103" /></g></g><text
         xml:space="preserve"
         style="font-size:335.46px;font-family:'Google Sans', Trueno;-inkscape-font-specification:'Trueno, Normal';fill:#edeef3;fill-opacity:1;stroke-width:66.0354"
         x="1916.7092"
         y="-2226.1448"
         id="text79097"><tspan
           sodipodi:role="line"
           id="tspan79095"
           x="1916.7092"
           y="-2226.1448"
           style="font-style:normal;font-variant:normal;font-weight:bold;font-stretch:normal;font-size:335.46px;font-family:Trueno;-inkscape-font-specification:'Trueno, Bold';font-variant-ligatures:normal;font-variant-caps:normal;font-variant-numeric:normal;font-variant-east-asian:normal;fill:#edeef3;fill-opacity:1;stroke-width:66.0355">Taywan</tspan></text></g></g></svg>
